<svg id="svg" version="1.1" xmlns="http://www.w3.org/2000/svg" xmlns:xlink="http://www.w3.org/1999/xlink" width="400" height="400" viewBox="0, 0, 400,400"><g id="svgg"><path id="path0" d="M146.800 183.500 C 146.800 183.789,146.293 184.000,145.600 184.000 C 144.940 184.000,144.400 184.180,144.400 184.400 C 144.400 184.620,144.040 184.800,143.600 184.800 C 143.160 184.800,142.800 184.959,142.800 185.153 C 142.800 185.497,141.304 186.130,140.700 186.043 C 140.535 186.019,140.400 186.160,140.400 186.355 C 140.400 186.551,139.624 187.497,138.676 188.459 C 137.728 189.421,136.694 190.791,136.378 191.504 C 136.063 192.217,135.567 192.800,135.275 192.800 C 134.936 192.800,134.833 193.075,134.989 193.566 C 135.123 193.988,135.045 194.448,134.816 194.590 C 134.587 194.731,134.400 195.382,134.400 196.036 C 134.400 196.690,134.175 197.311,133.900 197.417 C 133.152 197.703,133.202 206.045,133.955 206.635 C 134.300 206.905,134.441 207.539,134.328 208.311 C 134.218 209.061,134.314 209.522,134.573 209.476 C 134.808 209.434,134.973 209.725,134.941 210.123 C 134.908 210.521,135.313 211.312,135.841 211.882 C 136.368 212.451,136.800 213.079,136.800 213.277 C 136.800 213.476,137.610 214.459,138.600 215.464 C 139.590 216.468,140.400 217.479,140.400 217.711 C 140.400 217.943,140.515 218.019,140.655 217.878 C 140.795 217.738,141.408 217.978,142.017 218.412 C 142.625 218.845,143.411 219.200,143.762 219.200 C 144.113 219.200,144.400 219.380,144.400 219.600 C 144.400 219.820,144.841 220.000,145.380 220.000 C 145.919 220.000,146.504 220.225,146.680 220.500 C 146.910 220.860,148.517 221.000,152.400 221.000 C 156.283 221.000,157.890 220.860,158.120 220.500 C 158.296 220.225,158.870 220.000,159.396 220.000 C 159.922 220.000,160.474 219.804,160.622 219.565 C 160.769 219.326,161.230 219.219,161.645 219.328 C 162.133 219.455,162.400 219.316,162.400 218.936 C 162.400 218.528,162.647 218.424,163.200 218.600 C 163.740 218.771,164.000 218.672,164.000 218.295 C 164.000 217.987,164.450 217.494,165.000 217.200 C 166.087 216.618,166.371 215.200,165.400 215.200 C 165.070 215.200,164.800 215.039,164.800 214.842 C 164.800 214.645,164.080 214.415,163.200 214.331 C 162.051 214.222,161.600 214.331,161.600 214.716 C 161.600 215.061,161.329 215.168,160.847 215.015 C 160.358 214.860,160.006 215.007,159.841 215.437 C 159.654 215.924,159.284 216.037,158.430 215.866 C 157.623 215.705,157.205 215.811,157.049 216.217 C 156.710 217.100,148.876 217.063,148.536 216.177 C 148.394 215.806,148.041 215.652,147.664 215.797 C 146.378 216.290,140.800 212.587,140.800 211.240 C 140.800 210.998,140.664 210.800,140.498 210.800 C 140.007 210.800,139.103 208.430,139.349 207.789 C 139.473 207.465,139.351 207.200,139.077 207.200 C 138.706 207.200,138.579 205.881,138.579 202.000 C 138.579 198.119,138.706 196.800,139.077 196.800 C 139.351 196.800,139.473 196.535,139.349 196.211 C 139.103 195.570,140.007 193.200,140.498 193.200 C 140.664 193.200,140.800 192.988,140.800 192.728 C 140.800 191.568,145.943 188.000,147.614 188.000 C 148.020 188.000,148.464 187.820,148.600 187.600 C 149.034 186.898,156.784 187.092,157.060 187.812 C 157.208 188.198,157.572 188.336,158.046 188.185 C 158.958 187.896,161.600 188.792,161.600 189.391 C 161.600 189.652,162.231 189.761,163.200 189.669 C 164.080 189.585,164.800 189.355,164.800 189.158 C 164.800 188.961,165.070 188.800,165.400 188.800 C 165.733 188.800,166.000 188.444,166.000 188.000 C 166.000 187.560,165.807 187.200,165.571 187.200 C 165.035 187.200,164.000 186.189,164.000 185.666 C 164.000 185.451,163.640 185.369,163.200 185.484 C 162.666 185.624,162.400 185.496,162.400 185.102 C 162.400 184.687,162.102 184.568,161.400 184.702 C 160.816 184.814,160.400 184.707,160.400 184.447 C 160.400 184.201,159.959 184.000,159.420 184.000 C 158.881 184.000,158.296 183.775,158.120 183.500 C 157.889 183.140,156.263 183.000,152.300 183.000 C 148.166 183.000,146.799 183.124,146.800 183.500 M175.216 183.343 C 173.219 184.003,173.144 184.761,173.280 202.891 L 173.400 218.781 174.725 219.991 L 176.049 221.200 186.225 221.200 C 194.655 221.200,196.400 221.104,196.400 220.643 C 196.400 220.336,196.670 219.982,197.000 219.855 C 197.797 219.549,197.764 217.768,196.940 216.675 C 196.290 215.812,196.149 215.802,186.931 215.921 L 177.582 216.041 177.691 200.020 C 177.773 187.941,177.684 184.000,177.329 184.000 C 177.070 184.000,176.800 183.749,176.729 183.443 C 176.624 182.989,176.344 182.971,175.216 183.343 M230.617 183.500 C 230.512 183.775,230.104 183.997,229.713 183.994 C 229.321 183.990,228.022 184.485,226.826 185.094 C 224.969 186.039,223.929 186.937,221.400 189.781 C 220.945 190.293,220.112 191.686,219.297 193.300 C 218.991 193.905,218.600 194.400,218.426 194.400 C 218.253 194.400,218.202 194.878,218.314 195.463 C 218.438 196.109,218.298 196.696,217.959 196.963 C 217.156 197.591,217.143 207.201,217.945 207.200 C 218.324 207.200,218.437 207.567,218.315 208.400 C 218.218 209.060,218.269 209.600,218.427 209.600 C 218.586 209.600,219.187 210.500,219.762 211.600 C 220.337 212.700,220.727 213.600,220.628 213.600 C 220.529 213.600,221.472 214.545,222.724 215.700 C 223.976 216.855,225.060 217.935,225.133 218.100 C 225.207 218.265,225.522 218.400,225.833 218.400 C 226.145 218.400,226.400 218.653,226.400 218.963 C 226.400 219.328,226.680 219.452,227.200 219.316 C 227.727 219.178,228.000 219.304,228.000 219.684 C 228.000 220.098,228.340 220.212,229.200 220.085 C 230.035 219.963,230.400 220.076,230.400 220.457 C 230.400 220.898,231.300 220.977,235.000 220.860 C 239.020 220.732,239.600 220.795,239.600 221.357 C 239.600 221.711,239.825 222.006,240.100 222.012 C 240.621 222.025,242.962 224.914,243.421 226.111 C 243.567 226.490,243.865 226.800,244.085 226.800 C 244.305 226.800,244.829 227.238,245.250 227.773 C 247.070 230.087,249.062 228.619,248.568 225.328 C 248.356 223.914,248.154 223.599,247.455 223.593 C 246.954 223.589,246.061 222.936,245.300 222.020 C 243.796 220.208,243.572 218.995,244.800 219.316 C 245.320 219.452,245.600 219.328,245.600 218.963 C 245.600 218.653,245.793 218.400,246.029 218.400 C 246.264 218.400,246.687 218.175,246.968 217.900 C 247.249 217.625,248.404 216.540,249.535 215.488 C 250.666 214.437,251.702 213.132,251.839 212.588 C 251.975 212.045,252.247 211.600,252.443 211.600 C 252.640 211.600,252.800 211.240,252.800 210.800 C 252.800 210.360,253.066 210.000,253.390 210.000 C 253.832 210.000,253.920 209.699,253.740 208.800 C 253.566 207.932,253.652 207.600,254.050 207.600 C 254.490 207.600,254.600 206.490,254.600 202.033 C 254.600 198.544,254.451 196.492,254.200 196.533 C 253.980 196.570,253.827 196.015,253.859 195.300 C 253.899 194.425,253.735 194.000,253.359 194.000 C 253.052 194.000,252.800 193.640,252.800 193.200 C 252.800 192.760,252.641 192.400,252.447 192.400 C 252.153 192.400,251.994 192.045,251.600 190.512 C 251.588 190.464,250.547 189.474,249.289 188.312 C 248.030 187.150,246.940 186.065,246.867 185.900 C 246.793 185.735,246.478 185.600,246.167 185.600 C 245.855 185.600,245.600 185.347,245.600 185.037 C 245.600 184.672,245.320 184.548,244.800 184.684 C 244.273 184.822,244.000 184.696,244.000 184.316 C 244.000 183.902,243.660 183.788,242.800 183.915 C 241.967 184.037,241.600 183.924,241.600 183.545 C 241.600 182.787,230.909 182.743,230.617 183.500 M263.737 183.786 C 263.158 185.297,262.935 211.201,263.500 211.200 C 263.775 211.200,264.000 211.650,264.000 212.200 C 264.000 212.750,264.159 213.200,264.353 213.200 C 264.697 213.200,265.330 214.696,265.243 215.300 C 265.219 215.465,265.371 215.600,265.581 215.600 C 265.790 215.600,266.555 216.201,267.281 216.935 C 268.006 217.670,269.185 218.524,269.900 218.833 C 270.615 219.142,271.200 219.596,271.200 219.842 C 271.200 220.103,271.616 220.210,272.200 220.098 C 272.872 219.969,273.200 220.086,273.200 220.453 C 273.199 220.886,274.238 221.000,278.199 221.000 C 281.932 221.000,283.199 220.873,283.199 220.500 C 283.200 220.225,283.562 220.000,284.005 220.000 C 286.068 220.000,292.000 214.820,292.000 213.019 C 292.000 212.705,292.180 212.336,292.400 212.200 C 292.620 212.064,292.800 211.418,292.800 210.764 C 292.800 210.076,293.053 209.478,293.400 209.345 C 293.915 209.147,294.000 207.370,294.000 196.734 C 294.000 188.861,293.859 184.440,293.613 184.592 C 293.400 184.723,292.997 184.464,292.717 184.016 C 292.053 182.952,290.347 182.952,289.683 184.016 C 289.403 184.464,288.983 184.713,288.749 184.569 C 288.452 184.385,288.366 188.218,288.462 197.353 C 288.569 207.420,288.489 210.400,288.113 210.400 C 287.825 210.400,287.728 210.669,287.878 211.058 C 288.032 211.461,287.842 211.926,287.389 212.258 C 286.981 212.556,286.803 212.800,286.993 212.800 C 287.184 212.800,286.917 213.250,286.400 213.800 C 285.883 214.350,285.132 214.800,284.730 214.800 C 284.324 214.800,284.000 215.087,284.000 215.447 C 284.000 215.889,283.756 216.029,283.226 215.891 C 282.800 215.780,282.366 215.910,282.262 216.182 C 282.054 216.724,274.691 216.824,274.158 216.291 C 273.998 216.131,273.569 216.000,273.205 216.000 C 271.358 216.000,267.795 211.558,268.235 209.803 C 268.385 209.206,268.250 208.828,267.830 208.667 C 267.276 208.454,267.200 206.996,267.200 196.658 C 267.200 188.016,267.067 184.640,266.700 183.946 C 266.050 182.717,264.185 182.616,263.737 183.786 M305.600 183.332 C 305.600 183.625,305.195 184.081,304.700 184.346 L 303.800 184.827 304.000 202.114 C 304.251 223.803,302.473 221.200,317.036 221.200 C 329.109 221.200,329.558 221.107,329.581 218.600 C 329.598 216.634,329.471 216.609,319.015 216.469 L 309.200 216.338 309.195 211.069 C 309.192 208.171,309.079 205.388,308.944 204.885 L 308.699 203.971 317.950 204.085 C 325.145 204.175,327.201 204.089,327.200 203.700 C 327.200 203.425,327.432 203.200,327.716 203.200 C 328.016 203.200,328.225 202.739,328.216 202.100 C 328.189 200.241,326.939 200.000,317.307 200.000 L 308.707 200.000 308.948 199.100 C 309.081 198.605,309.192 195.815,309.195 192.900 L 309.200 187.600 318.300 187.560 C 328.965 187.513,329.353 187.448,329.526 185.682 C 329.612 184.798,329.455 184.319,329.026 184.154 C 328.681 184.022,328.400 183.664,328.400 183.357 C 328.400 182.894,326.478 182.800,317.000 182.800 C 307.777 182.800,305.600 182.902,305.600 183.332 M204.800 183.813 C 204.800 184.149,204.530 184.529,204.200 184.655 C 203.680 184.855,203.600 187.137,203.600 201.825 L 203.600 218.764 204.618 219.782 C 205.746 220.909,207.388 221.129,207.745 220.200 C 207.871 219.870,208.206 219.600,208.487 219.600 C 208.896 219.600,209.000 216.043,209.000 202.000 C 209.000 187.957,208.896 184.400,208.487 184.400 C 208.206 184.400,207.871 184.130,207.745 183.800 C 207.424 182.965,204.800 182.977,204.800 183.813 M240.216 187.626 C 240.343 187.832,240.887 188.000,241.424 188.000 C 242.054 188.000,242.400 188.228,242.400 188.643 C 242.400 189.060,242.618 189.202,243.022 189.047 C 243.697 188.788,246.000 190.282,246.000 190.979 C 246.000 191.215,246.349 191.626,246.776 191.892 C 247.718 192.481,248.972 194.998,248.612 195.580 C 248.470 195.811,248.657 196.000,249.029 196.000 C 249.575 196.000,249.662 196.263,249.483 197.369 C 249.325 198.341,249.425 198.801,249.830 198.956 C 250.249 199.117,250.400 199.924,250.400 202.000 C 250.400 204.076,250.249 204.883,249.830 205.044 C 249.425 205.199,249.325 205.659,249.483 206.631 C 249.662 207.737,249.575 208.000,249.029 208.000 C 248.644 208.000,248.469 208.187,248.621 208.435 C 249.132 209.261,247.165 212.400,246.137 212.400 C 245.493 212.400,245.200 212.631,245.200 213.138 C 245.200 214.117,243.789 215.358,243.015 215.061 C 242.664 214.926,242.400 215.040,242.400 215.325 C 242.400 216.477,232.461 217.469,231.790 216.384 C 231.660 216.173,231.113 216.000,230.576 216.000 C 229.946 216.000,229.600 215.772,229.600 215.357 C 229.600 214.946,229.381 214.799,228.992 214.948 C 227.949 215.348,223.871 211.432,224.151 210.300 C 224.260 209.864,224.096 209.600,223.716 209.600 C 223.310 209.600,223.174 209.341,223.309 208.826 C 223.430 208.363,223.274 207.960,222.921 207.825 C 222.474 207.653,222.393 207.222,222.591 206.052 C 222.794 204.851,222.713 204.452,222.226 204.265 C 221.772 204.091,221.600 203.469,221.600 202.000 C 221.600 200.531,221.772 199.909,222.226 199.735 C 222.713 199.548,222.794 199.149,222.591 197.948 C 222.393 196.778,222.474 196.347,222.921 196.175 C 223.274 196.040,223.430 195.637,223.309 195.174 C 223.168 194.635,223.311 194.400,223.780 194.400 C 224.257 194.400,224.384 194.181,224.216 193.650 C 223.917 192.709,228.097 188.709,229.013 189.060 C 229.379 189.201,229.600 189.043,229.600 188.643 C 229.600 188.228,229.946 188.000,230.576 188.000 C 231.113 188.000,231.657 187.832,231.784 187.626 C 231.911 187.420,233.808 187.252,236.000 187.252 C 238.192 187.252,240.089 187.420,240.216 187.626 " stroke="none" fill="#070707" fill-rule="evenodd"></path><path id="path1" d="M56.500 163.300 C 56.640 163.721,90.018 164.519,90.748 164.119 C 90.829 164.075,90.617 163.760,90.276 163.419 C 89.440 162.583,56.222 162.466,56.500 163.300 M54.800 164.649 C 54.800 165.536,54.893 165.621,55.400 165.200 C 55.730 164.926,56.000 164.454,56.000 164.151 C 56.000 163.848,55.730 163.600,55.400 163.600 C 55.019 163.600,54.800 163.983,54.800 164.649 M54.000 167.400 C 54.000 167.730,54.180 168.000,54.400 168.000 C 54.620 168.000,54.800 167.730,54.800 167.400 C 54.800 167.070,54.620 166.800,54.400 166.800 C 54.180 166.800,54.000 167.070,54.000 167.400 M89.800 167.200 C 89.508 167.672,89.887 168.400,90.424 168.400 C 90.631 168.400,90.800 168.040,90.800 167.600 C 90.800 166.756,90.218 166.524,89.800 167.200 M53.200 170.286 C 53.200 171.286,53.251 171.321,53.847 170.724 C 54.203 170.368,54.373 169.879,54.224 169.638 C 53.733 168.844,53.200 169.181,53.200 170.286 M88.952 170.181 C 88.829 170.500,88.846 170.950,88.988 171.181 C 89.454 171.935,90.000 171.621,90.000 170.600 C 90.000 169.516,89.313 169.241,88.952 170.181 M52.400 173.200 C 52.400 173.640,52.580 174.000,52.800 174.000 C 53.020 174.000,53.200 173.640,53.200 173.200 C 53.200 172.760,53.020 172.400,52.800 172.400 C 52.580 172.400,52.400 172.760,52.400 173.200 M88.200 172.800 C 87.908 173.272,88.287 174.000,88.824 174.000 C 89.031 174.000,89.200 173.640,89.200 173.200 C 89.200 172.356,88.618 172.124,88.200 172.800 M51.600 175.800 C 51.600 176.476,51.783 176.806,52.100 176.700 C 52.375 176.608,52.600 176.203,52.600 175.800 C 52.600 175.397,52.375 174.992,52.100 174.900 C 51.783 174.794,51.600 175.124,51.600 175.800 M87.352 175.781 C 87.229 176.100,87.246 176.550,87.388 176.781 C 87.854 177.535,88.400 177.221,88.400 176.200 C 88.400 175.116,87.713 174.841,87.352 175.781 M50.800 178.800 C 50.800 179.316,51.003 179.599,51.300 179.500 C 51.575 179.408,51.800 179.093,51.800 178.800 C 51.800 178.507,51.575 178.192,51.300 178.100 C 51.003 178.001,50.800 178.284,50.800 178.800 M86.600 178.400 C 86.308 178.872,86.687 179.600,87.224 179.600 C 87.431 179.600,87.600 179.240,87.600 178.800 C 87.600 177.956,87.018 177.724,86.600 178.400 M89.200 178.600 C 89.200 178.930,89.470 179.200,89.800 179.200 C 90.130 179.200,90.400 178.930,90.400 178.600 C 90.400 178.270,90.130 178.000,89.800 178.000 C 89.470 178.000,89.200 178.270,89.200 178.600 M50.000 181.400 C 50.000 182.076,50.183 182.406,50.500 182.300 C 50.775 182.208,51.000 181.803,51.000 181.400 C 51.000 180.997,50.775 180.592,50.500 180.500 C 50.183 180.394,50.000 180.724,50.000 181.400 M88.400 181.200 C 88.400 181.716,88.603 181.999,88.900 181.900 C 89.175 181.808,89.400 181.493,89.400 181.200 C 89.400 180.907,89.175 180.592,88.900 180.500 C 88.603 180.401,88.400 180.684,88.400 181.200 M85.752 181.381 C 85.629 181.700,85.646 182.150,85.788 182.381 C 86.254 183.135,86.800 182.821,86.800 181.800 C 86.800 180.716,86.113 180.441,85.752 181.381 M109.200 181.400 C 109.200 181.730,109.380 182.000,109.600 182.000 C 109.820 182.000,110.000 181.730,110.000 181.400 C 110.000 181.070,109.820 180.800,109.600 180.800 C 109.380 180.800,109.200 181.070,109.200 181.400 M147.600 182.400 C 147.600 182.620,147.960 182.800,148.400 182.800 C 148.840 182.800,149.200 182.620,149.200 182.400 C 149.200 182.180,148.840 182.000,148.400 182.000 C 147.960 182.000,147.600 182.180,147.600 182.400 M155.600 182.400 C 155.600 182.620,155.960 182.800,156.400 182.800 C 156.840 182.800,157.200 182.620,157.200 182.400 C 157.200 182.180,156.840 182.000,156.400 182.000 C 155.960 182.000,155.600 182.180,155.600 182.400 M174.000 182.376 C 174.000 182.968,174.585 183.181,175.531 182.934 C 176.804 182.601,176.591 182.000,175.200 182.000 C 174.540 182.000,174.000 182.169,174.000 182.376 M205.200 182.400 C 205.200 182.620,205.740 182.800,206.400 182.800 C 207.060 182.800,207.600 182.620,207.600 182.400 C 207.600 182.180,207.060 182.000,206.400 182.000 C 205.740 182.000,205.200 182.180,205.200 182.400 M231.600 182.400 C 231.600 182.620,231.960 182.800,232.400 182.800 C 232.840 182.800,233.200 182.620,233.200 182.400 C 233.200 182.180,232.840 182.000,232.400 182.000 C 231.960 182.000,231.600 182.180,231.600 182.400 M238.800 182.400 C 238.800 182.620,239.160 182.800,239.600 182.800 C 240.040 182.800,240.400 182.620,240.400 182.400 C 240.400 182.180,240.040 182.000,239.600 182.000 C 239.160 182.000,238.800 182.180,238.800 182.400 M264.400 182.400 C 264.400 182.620,264.760 182.800,265.200 182.800 C 265.640 182.800,266.000 182.620,266.000 182.400 C 266.000 182.180,265.640 182.000,265.200 182.000 C 264.760 182.000,264.400 182.180,264.400 182.400 M290.000 182.400 C 290.000 182.620,290.540 182.800,291.200 182.800 C 291.860 182.800,292.400 182.620,292.400 182.400 C 292.400 182.180,291.860 182.000,291.200 182.000 C 290.540 182.000,290.000 182.180,290.000 182.400 M87.600 183.800 C 87.600 184.476,87.783 184.806,88.100 184.700 C 88.375 184.608,88.600 184.203,88.600 183.800 C 88.600 183.397,88.375 182.992,88.100 182.900 C 87.783 182.794,87.600 183.124,87.600 183.800 M144.400 183.200 C 144.400 183.420,144.670 183.600,145.000 183.600 C 145.330 183.600,145.600 183.420,145.600 183.200 C 145.600 182.980,145.330 182.800,145.000 182.800 C 144.670 182.800,144.400 182.980,144.400 183.200 M159.200 183.200 C 159.200 183.420,159.470 183.600,159.800 183.600 C 160.130 183.600,160.400 183.420,160.400 183.200 C 160.400 182.980,160.130 182.800,159.800 182.800 C 159.470 182.800,159.200 182.980,159.200 183.200 M208.092 183.275 C 208.339 184.017,209.200 184.140,209.200 183.433 C 209.200 183.085,208.915 182.800,208.567 182.800 C 208.218 182.800,208.005 183.014,208.092 183.275 M228.400 183.200 C 228.400 183.420,228.670 183.600,229.000 183.600 C 229.330 183.600,229.600 183.420,229.600 183.200 C 229.600 182.980,229.330 182.800,229.000 182.800 C 228.670 182.800,228.400 182.980,228.400 183.200 M242.400 183.200 C 242.400 183.420,242.670 183.600,243.000 183.600 C 243.330 183.600,243.600 183.420,243.600 183.200 C 243.600 182.980,243.330 182.800,243.000 182.800 C 242.670 182.800,242.400 182.980,242.400 183.200 M288.400 183.433 C 288.400 184.140,289.261 184.017,289.508 183.275 C 289.595 183.014,289.382 182.800,289.033 182.800 C 288.685 182.800,288.400 183.085,288.400 183.433 M292.892 183.275 C 293.139 184.017,294.000 184.140,294.000 183.433 C 294.000 183.085,293.715 182.800,293.367 182.800 C 293.018 182.800,292.805 183.014,292.892 183.275 M329.200 183.197 C 329.200 183.418,329.380 183.600,329.600 183.600 C 329.820 183.600,330.000 183.870,330.000 184.200 C 330.000 184.530,330.180 184.800,330.400 184.800 C 331.095 184.800,330.833 183.813,330.000 183.293 C 329.526 182.997,329.200 182.957,329.200 183.197 M49.200 184.400 C 49.200 184.916,49.403 185.199,49.700 185.100 C 49.975 185.008,50.200 184.693,50.200 184.400 C 50.200 184.107,49.975 183.792,49.700 183.700 C 49.403 183.601,49.200 183.884,49.200 184.400 M85.004 183.993 C 84.709 184.471,85.083 185.200,85.624 185.200 C 86.110 185.200,86.113 184.117,85.628 183.817 C 85.423 183.691,85.142 183.770,85.004 183.993 M108.200 184.000 C 107.908 184.472,108.287 185.200,108.824 185.200 C 109.031 185.200,109.200 184.840,109.200 184.400 C 109.200 183.556,108.618 183.324,108.200 184.000 M262.000 184.200 C 262.000 184.530,262.180 184.800,262.400 184.800 C 262.620 184.800,262.800 184.530,262.800 184.200 C 262.800 183.870,262.620 183.600,262.400 183.600 C 262.180 183.600,262.000 183.870,262.000 184.200 M267.600 184.200 C 267.600 184.530,267.780 184.800,268.000 184.800 C 268.220 184.800,268.400 184.530,268.400 184.200 C 268.400 183.870,268.220 183.600,268.000 183.600 C 267.780 183.600,267.600 183.870,267.600 184.200 M178.000 185.224 C 178.000 185.677,178.180 185.936,178.400 185.800 C 178.620 185.664,178.800 185.293,178.800 184.976 C 178.800 184.659,178.620 184.400,178.400 184.400 C 178.180 184.400,178.000 184.771,178.000 185.224 M209.043 185.833 C 208.726 186.659,208.726 217.341,209.043 218.167 C 209.827 220.210,210.000 217.281,210.000 202.000 C 210.000 186.719,209.827 183.790,209.043 185.833 M247.200 185.586 C 247.200 186.055,248.783 186.951,249.082 186.651 C 249.360 186.374,248.185 185.200,247.629 185.200 C 247.393 185.200,247.200 185.374,247.200 185.586 M302.800 202.433 C 302.800 216.042,302.905 219.632,303.300 219.500 C 303.575 219.408,303.782 219.123,303.760 218.867 C 303.738 218.610,303.693 210.930,303.660 201.800 C 303.621 191.040,303.459 185.200,303.200 185.200 C 302.940 185.200,302.800 191.211,302.800 202.433 M86.800 186.800 C 86.800 187.316,87.003 187.599,87.300 187.500 C 87.575 187.408,87.800 187.093,87.800 186.800 C 87.800 186.507,87.575 186.192,87.300 186.100 C 87.003 186.001,86.800 186.284,86.800 186.800 M137.700 187.416 C 136.459 188.715,136.054 189.601,136.700 189.599 C 137.026 189.599,140.000 186.540,140.000 186.205 C 140.000 185.609,138.844 186.218,137.700 187.416 M221.700 187.416 C 220.402 188.775,220.057 189.600,220.786 189.600 C 220.998 189.600,221.386 189.195,221.649 188.700 C 221.911 188.205,222.457 187.509,222.863 187.153 C 223.268 186.797,223.600 186.392,223.600 186.253 C 223.600 185.711,222.946 186.112,221.700 187.416 M84.152 186.981 C 84.029 187.300,84.046 187.750,84.188 187.981 C 84.654 188.735,85.200 188.421,85.200 187.400 C 85.200 186.316,84.513 186.041,84.152 186.981 M107.600 187.000 C 107.600 187.330,107.780 187.600,108.000 187.600 C 108.220 187.600,108.400 187.330,108.400 187.000 C 108.400 186.670,108.220 186.400,108.000 186.400 C 107.780 186.400,107.600 186.670,107.600 187.000 M329.462 187.131 C 328.697 187.977,328.619 188.400,329.229 188.400 C 329.782 188.400,330.800 187.382,330.800 186.829 C 330.800 186.179,330.201 186.314,329.462 187.131 M48.400 187.400 C 48.400 187.730,48.580 188.000,48.800 188.000 C 49.020 188.000,49.200 187.730,49.200 187.400 C 49.200 187.070,49.020 186.800,48.800 186.800 C 48.580 186.800,48.400 187.070,48.400 187.400 M236.900 187.498 C 235.951 187.818,236.403 188.400,237.600 188.400 C 238.260 188.400,238.800 188.241,238.800 188.047 C 238.800 187.616,237.588 187.267,236.900 187.498 M150.400 188.000 C 150.400 188.222,151.467 188.400,152.800 188.400 C 154.133 188.400,155.200 188.222,155.200 188.000 C 155.200 187.778,154.133 187.600,152.800 187.600 C 151.467 187.600,150.400 187.778,150.400 188.000 M233.200 188.000 C 233.200 188.220,233.740 188.400,234.400 188.400 C 235.060 188.400,235.600 188.220,235.600 188.000 C 235.600 187.780,235.060 187.600,234.400 187.600 C 233.740 187.600,233.200 187.780,233.200 188.000 M147.300 188.287 C 146.511 188.570,146.718 189.200,147.600 189.200 C 148.040 189.200,148.400 189.031,148.400 188.824 C 148.400 188.312,147.905 188.070,147.300 188.287 M230.400 188.800 C 230.400 189.020,230.670 189.200,231.000 189.200 C 231.330 189.200,231.600 189.020,231.600 188.800 C 231.600 188.580,231.330 188.400,231.000 188.400 C 230.670 188.400,230.400 188.580,230.400 188.800 M240.400 188.800 C 240.400 189.020,240.670 189.200,241.000 189.200 C 241.330 189.200,241.600 189.020,241.600 188.800 C 241.600 188.580,241.330 188.400,241.000 188.400 C 240.670 188.400,240.400 188.580,240.400 188.800 M159.856 189.078 C 159.405 189.528,159.581 190.000,160.200 190.000 C 160.530 190.000,160.800 189.831,160.800 189.624 C 160.800 189.119,160.175 188.758,159.856 189.078 M47.600 190.000 C 47.600 190.516,47.803 190.799,48.100 190.700 C 48.375 190.608,48.600 190.293,48.600 190.000 C 48.600 189.707,48.375 189.392,48.100 189.300 C 47.803 189.201,47.600 189.484,47.600 190.000 M86.000 189.800 C 86.000 190.130,86.180 190.400,86.400 190.400 C 86.620 190.400,86.800 190.130,86.800 189.800 C 86.800 189.470,86.620 189.200,86.400 189.200 C 86.180 189.200,86.000 189.470,86.000 189.800 M106.670 189.761 C 106.445 190.349,106.703 190.800,107.267 190.800 C 107.450 190.800,107.600 190.440,107.600 190.000 C 107.600 189.083,106.991 188.926,106.670 189.761 M83.600 190.200 C 83.600 190.530,83.780 190.800,84.000 190.800 C 84.220 190.800,84.400 190.530,84.400 190.200 C 84.400 189.870,84.220 189.600,84.000 189.600 C 83.780 189.600,83.600 189.870,83.600 190.200 M226.369 191.169 C 225.314 192.224,224.855 193.200,225.413 193.200 C 225.692 193.200,228.400 190.492,228.400 190.213 C 228.400 189.655,227.424 190.114,226.369 191.169 M243.600 190.229 C 243.600 190.621,244.722 191.600,245.171 191.600 C 245.874 191.600,245.658 190.859,244.826 190.414 C 243.954 189.947,243.600 189.894,243.600 190.229 M134.800 191.400 C 134.800 191.767,134.994 192.002,135.230 191.923 C 135.466 191.845,135.660 191.609,135.660 191.400 C 135.660 191.191,135.466 190.956,135.230 190.877 C 134.994 190.798,134.800 191.033,134.800 191.400 M218.800 191.400 C 218.800 191.730,218.980 192.000,219.200 192.000 C 219.420 192.000,219.600 191.730,219.600 191.400 C 219.600 191.070,219.420 190.800,219.200 190.800 C 218.980 190.800,218.800 191.070,218.800 191.400 M85.200 192.400 C 85.200 192.916,85.403 193.199,85.700 193.100 C 85.975 193.008,86.200 192.693,86.200 192.400 C 86.200 192.107,85.975 191.792,85.700 191.700 C 85.403 191.601,85.200 191.884,85.200 192.400 M105.841 192.636 C 105.569 193.345,105.849 194.000,106.424 194.000 C 106.631 194.000,106.800 193.550,106.800 193.000 C 106.800 191.881,106.216 191.659,105.841 192.636 M246.000 192.600 C 246.000 192.930,246.180 193.200,246.400 193.200 C 246.620 193.200,246.800 192.930,246.800 192.600 C 246.800 192.270,246.620 192.000,246.400 192.000 C 246.180 192.000,246.000 192.270,246.000 192.600 M46.800 192.976 C 46.800 193.293,46.961 193.652,47.158 193.774 C 47.570 194.029,48.066 193.000,47.706 192.639 C 47.277 192.210,46.800 192.387,46.800 192.976 M82.600 192.800 C 82.308 193.272,82.687 194.000,83.224 194.000 C 83.431 194.000,83.600 193.640,83.600 193.200 C 83.600 192.356,83.018 192.124,82.600 192.800 M218.000 193.000 C 218.000 193.330,218.180 193.600,218.400 193.600 C 218.620 193.600,218.800 193.330,218.800 193.000 C 218.800 192.670,218.620 192.400,218.400 192.400 C 218.180 192.400,218.000 192.670,218.000 193.000 M84.400 195.600 C 84.400 196.116,84.603 196.399,84.900 196.300 C 85.175 196.208,85.400 195.893,85.400 195.600 C 85.400 195.307,85.175 194.992,84.900 194.900 C 84.603 194.801,84.400 195.084,84.400 195.600 M133.200 195.400 C 133.200 195.730,133.380 196.000,133.600 196.000 C 133.820 196.000,134.000 195.730,134.000 195.400 C 134.000 195.070,133.820 194.800,133.600 194.800 C 133.380 194.800,133.200 195.070,133.200 195.400 M82.000 195.800 C 82.000 196.130,82.180 196.400,82.400 196.400 C 82.620 196.400,82.800 196.130,82.800 195.800 C 82.800 195.470,82.620 195.200,82.400 195.200 C 82.180 195.200,82.000 195.470,82.000 195.800 M105.200 195.800 C 105.200 196.130,105.380 196.400,105.600 196.400 C 105.820 196.400,106.000 196.130,106.000 195.800 C 106.000 195.470,105.820 195.200,105.600 195.200 C 105.380 195.200,105.200 195.470,105.200 195.800 M46.800 197.400 C 46.800 197.730,47.070 198.000,47.400 198.000 C 47.730 198.000,48.000 197.730,48.000 197.400 C 48.000 197.070,47.730 196.800,47.400 196.800 C 47.070 196.800,46.800 197.070,46.800 197.400 M81.067 197.067 C 80.606 197.527,80.775 198.000,81.400 198.000 C 81.730 198.000,82.000 197.730,82.000 197.400 C 82.000 196.775,81.527 196.606,81.067 197.067 M85.200 197.367 C 85.200 197.715,85.485 198.000,85.833 198.000 C 86.540 198.000,86.417 197.139,85.675 196.892 C 85.414 196.805,85.200 197.018,85.200 197.367 M104.000 197.400 C 104.000 197.730,104.270 198.000,104.600 198.000 C 104.930 198.000,105.200 197.730,105.200 197.400 C 105.200 197.070,104.930 196.800,104.600 196.800 C 104.270 196.800,104.000 197.070,104.000 197.400 M248.400 197.400 C 248.400 197.730,248.580 198.000,248.800 198.000 C 249.020 198.000,249.200 197.730,249.200 197.400 C 249.200 197.070,249.020 196.800,248.800 196.800 C 248.580 196.800,248.400 197.070,248.400 197.400 M254.800 198.200 C 254.800 198.750,254.980 199.200,255.200 199.200 C 255.420 199.200,255.600 198.750,255.600 198.200 C 255.600 197.650,255.420 197.200,255.200 197.200 C 254.980 197.200,254.800 197.650,254.800 198.200 M138.800 198.800 C 138.800 199.240,138.980 199.600,139.200 199.600 C 139.420 199.600,139.600 199.240,139.600 198.800 C 139.600 198.360,139.420 198.000,139.200 198.000 C 138.980 198.000,138.800 198.360,138.800 198.800 M216.400 199.000 C 216.400 199.550,216.580 200.000,216.800 200.000 C 217.020 200.000,217.200 199.550,217.200 199.000 C 217.200 198.450,217.020 198.000,216.800 198.000 C 216.580 198.000,216.400 198.450,216.400 199.000 M132.400 202.000 C 132.400 203.867,132.567 205.200,132.800 205.200 C 133.265 205.200,133.271 205.160,133.271 202.000 C 133.271 198.840,133.265 198.800,132.800 198.800 C 132.567 198.800,132.400 200.133,132.400 202.000 M309.200 199.179 C 309.200 199.402,312.856 199.609,318.100 199.684 C 322.995 199.753,327.333 199.969,327.740 200.163 C 328.412 200.484,328.430 200.438,327.943 199.658 C 327.361 198.725,309.200 198.261,309.200 199.179 M328.400 202.000 C 328.400 202.440,328.580 202.800,328.800 202.800 C 329.020 202.800,329.200 202.440,329.200 202.000 C 329.200 201.560,329.020 201.200,328.800 201.200 C 328.580 201.200,328.400 201.560,328.400 202.000 M44.400 202.600 C 44.400 202.930,44.670 203.200,45.000 203.200 C 45.330 203.200,45.600 202.930,45.600 202.600 C 45.600 202.270,45.330 202.000,45.000 202.000 C 44.670 202.000,44.400 202.270,44.400 202.600 M63.292 202.475 C 63.539 203.217,64.400 203.340,64.400 202.633 C 64.400 202.285,64.115 202.000,63.767 202.000 C 63.418 202.000,63.205 202.214,63.292 202.475 M67.600 202.600 C 67.600 202.930,67.870 203.200,68.200 203.200 C 68.530 203.200,68.800 202.930,68.800 202.600 C 68.800 202.270,68.530 202.000,68.200 202.000 C 67.870 202.000,67.600 202.270,67.600 202.600 M101.600 202.600 C 101.600 202.930,101.870 203.200,102.200 203.200 C 102.530 203.200,102.800 202.930,102.800 202.600 C 102.800 202.270,102.530 202.000,102.200 202.000 C 101.870 202.000,101.600 202.270,101.600 202.600 M43.600 204.400 C 43.600 204.916,43.803 205.199,44.100 205.100 C 44.375 205.008,44.600 204.693,44.600 204.400 C 44.600 204.107,44.375 203.792,44.100 203.700 C 43.803 203.601,43.600 203.884,43.600 204.400 M64.200 204.000 C 63.908 204.472,64.287 205.200,64.824 205.200 C 65.031 205.200,65.200 204.840,65.200 204.400 C 65.200 203.556,64.618 203.324,64.200 204.000 M66.800 204.200 C 66.800 204.530,66.980 204.800,67.200 204.800 C 67.420 204.800,67.600 204.530,67.600 204.200 C 67.600 203.870,67.420 203.600,67.200 203.600 C 66.980 203.600,66.800 203.870,66.800 204.200 M216.400 205.000 C 216.400 205.550,216.580 206.000,216.800 206.000 C 217.020 206.000,217.200 205.550,217.200 205.000 C 217.200 204.450,217.020 204.000,216.800 204.000 C 216.580 204.000,216.400 204.450,216.400 205.000 M138.800 205.200 C 138.800 205.640,138.980 206.000,139.200 206.000 C 139.420 206.000,139.600 205.640,139.600 205.200 C 139.600 204.760,139.420 204.400,139.200 204.400 C 138.980 204.400,138.800 204.760,138.800 205.200 M309.200 204.800 C 309.200 205.055,312.400 205.200,318.000 205.200 C 323.600 205.200,326.800 205.055,326.800 204.800 C 326.800 204.545,323.600 204.400,318.000 204.400 C 312.400 204.400,309.200 204.545,309.200 204.800 M254.800 205.776 C 254.800 206.339,254.980 206.800,255.200 206.800 C 255.420 206.800,255.600 206.451,255.600 206.024 C 255.600 205.597,255.420 205.136,255.200 205.000 C 254.973 204.860,254.800 205.196,254.800 205.776 M66.000 207.000 C 66.000 207.550,66.161 208.000,66.357 208.000 C 66.824 208.000,67.267 206.832,66.978 206.364 C 66.542 205.659,66.000 206.012,66.000 207.000 M248.400 206.600 C 248.400 206.930,248.580 207.200,248.800 207.200 C 249.020 207.200,249.200 206.930,249.200 206.600 C 249.200 206.270,249.020 206.000,248.800 206.000 C 248.580 206.000,248.400 206.270,248.400 206.600 M102.000 207.000 C 102.000 207.330,102.180 207.600,102.400 207.600 C 102.620 207.600,102.800 207.330,102.800 207.000 C 102.800 206.670,102.620 206.400,102.400 206.400 C 102.180 206.400,102.000 206.670,102.000 207.000 M42.800 207.400 C 42.800 207.730,42.980 208.000,43.200 208.000 C 43.420 208.000,43.600 207.730,43.600 207.400 C 43.600 207.070,43.420 206.800,43.200 206.800 C 42.980 206.800,42.800 207.070,42.800 207.400 M63.400 207.200 C 63.108 207.672,63.487 208.400,64.024 208.400 C 64.231 208.400,64.400 208.040,64.400 207.600 C 64.400 206.756,63.818 206.524,63.400 207.200 M139.600 208.200 C 139.600 208.530,139.780 208.800,140.000 208.800 C 140.220 208.800,140.400 208.530,140.400 208.200 C 140.400 207.870,140.220 207.600,140.000 207.600 C 139.780 207.600,139.600 207.870,139.600 208.200 M287.600 208.400 C 287.600 208.840,287.780 209.200,288.000 209.200 C 288.220 209.200,288.400 208.840,288.400 208.400 C 288.400 207.960,288.220 207.600,288.000 207.600 C 287.780 207.600,287.600 207.960,287.600 208.400 M133.200 208.600 C 133.200 208.930,133.380 209.200,133.600 209.200 C 133.820 209.200,134.000 208.930,134.000 208.600 C 134.000 208.270,133.820 208.000,133.600 208.000 C 133.380 208.000,133.200 208.270,133.200 208.600 M262.000 209.800 C 262.000 210.350,262.180 210.800,262.400 210.800 C 262.620 210.800,262.800 210.350,262.800 209.800 C 262.800 209.250,262.620 208.800,262.400 208.800 C 262.180 208.800,262.000 209.250,262.000 209.800 M42.000 210.000 C 42.000 210.516,42.203 210.799,42.500 210.700 C 42.775 210.608,43.000 210.293,43.000 210.000 C 43.000 209.707,42.775 209.392,42.500 209.300 C 42.203 209.201,42.000 209.484,42.000 210.000 M65.200 209.800 C 65.200 210.130,65.380 210.400,65.600 210.400 C 65.820 210.400,66.000 210.130,66.000 209.800 C 66.000 209.470,65.820 209.200,65.600 209.200 C 65.380 209.200,65.200 209.470,65.200 209.800 M101.200 210.000 C 101.200 210.440,101.380 210.800,101.600 210.800 C 101.820 210.800,102.000 210.440,102.000 210.000 C 102.000 209.560,101.820 209.200,101.600 209.200 C 101.380 209.200,101.200 209.560,101.200 210.000 M140.400 209.800 C 140.400 210.130,140.580 210.400,140.800 210.400 C 141.020 210.400,141.200 210.130,141.200 209.800 C 141.200 209.470,141.020 209.200,140.800 209.200 C 140.580 209.200,140.400 209.470,140.400 209.800 M62.800 210.200 C 62.800 210.530,62.980 210.800,63.200 210.800 C 63.420 210.800,63.600 210.530,63.600 210.200 C 63.600 209.870,63.420 209.600,63.200 209.600 C 62.980 209.600,62.800 209.870,62.800 210.200 M218.000 211.000 C 218.000 211.330,218.180 211.600,218.400 211.600 C 218.620 211.600,218.800 211.330,218.800 211.000 C 218.800 210.670,218.620 210.400,218.400 210.400 C 218.180 210.400,218.000 210.670,218.000 211.000 M225.200 211.231 C 225.200 211.468,225.726 212.188,226.369 212.831 C 227.424 213.886,228.400 214.345,228.400 213.787 C 228.400 213.669,227.776 212.949,227.013 212.187 C 225.544 210.717,225.200 210.536,225.200 211.231 M246.000 211.400 C 246.000 211.767,246.194 212.002,246.430 211.923 C 246.667 211.845,246.860 211.609,246.860 211.400 C 246.860 211.191,246.667 210.956,246.430 210.877 C 246.194 210.798,246.000 211.033,246.000 211.400 M293.070 211.361 C 292.845 211.949,293.103 212.400,293.667 212.400 C 293.850 212.400,294.000 212.040,294.000 211.600 C 294.000 210.683,293.391 210.526,293.070 211.361 M64.400 212.686 C 64.400 213.686,64.451 213.721,65.047 213.124 C 65.403 212.768,65.573 212.279,65.424 212.038 C 64.933 211.244,64.400 211.581,64.400 212.686 M100.400 212.600 C 100.400 212.930,100.580 213.200,100.800 213.200 C 101.020 213.200,101.200 212.930,101.200 212.600 C 101.200 212.270,101.020 212.000,100.800 212.000 C 100.580 212.000,100.400 212.270,100.400 212.600 M134.800 212.600 C 134.800 212.967,134.994 213.202,135.230 213.123 C 135.466 213.045,135.660 212.809,135.660 212.600 C 135.660 212.391,135.466 212.155,135.230 212.077 C 134.994 211.998,134.800 212.233,134.800 212.600 M218.800 212.600 C 218.800 212.930,218.980 213.200,219.200 213.200 C 219.420 213.200,219.600 212.930,219.600 212.600 C 219.600 212.270,219.420 212.000,219.200 212.000 C 218.980 212.000,218.800 212.270,218.800 212.600 M262.800 212.600 C 262.800 212.930,262.980 213.200,263.200 213.200 C 263.420 213.200,263.600 212.930,263.600 212.600 C 263.600 212.270,263.420 212.000,263.200 212.000 C 262.980 212.000,262.800 212.270,262.800 212.600 M41.200 213.000 C 41.200 213.330,41.380 213.600,41.600 213.600 C 41.820 213.600,42.000 213.330,42.000 213.000 C 42.000 212.670,41.820 212.400,41.600 212.400 C 41.380 212.400,41.200 212.670,41.200 213.000 M62.000 213.200 C 62.000 213.640,62.180 214.000,62.400 214.000 C 62.620 214.000,62.800 213.640,62.800 213.200 C 62.800 212.760,62.620 212.400,62.400 212.400 C 62.180 212.400,62.000 212.760,62.000 213.200 M270.000 212.954 C 270.000 213.492,271.919 215.015,272.219 214.715 C 272.405 214.528,270.599 212.400,270.253 212.400 C 270.114 212.400,270.000 212.649,270.000 212.954 M136.400 214.813 C 136.400 215.351,139.049 218.000,139.587 218.000 C 140.261 218.000,140.081 217.685,138.447 216.000 C 136.850 214.355,136.400 214.094,136.400 214.813 M291.600 215.000 C 291.600 215.330,291.780 215.600,292.000 215.600 C 292.220 215.600,292.400 215.330,292.400 215.000 C 292.400 214.670,292.220 214.400,292.000 214.400 C 291.780 214.400,291.600 214.670,291.600 215.000 M40.400 215.600 C 40.400 216.116,40.603 216.399,40.900 216.300 C 41.175 216.208,41.400 215.893,41.400 215.600 C 41.400 215.307,41.175 214.992,40.900 214.900 C 40.603 214.801,40.400 215.084,40.400 215.600 M63.600 215.376 C 63.600 215.693,63.780 216.064,64.000 216.200 C 64.220 216.336,64.400 216.077,64.400 215.624 C 64.400 215.171,64.220 214.800,64.000 214.800 C 63.780 214.800,63.600 215.059,63.600 215.376 M178.500 215.300 C 178.674 215.824,192.827 216.266,194.700 215.806 C 197.454 215.129,194.923 214.800,186.967 214.800 C 180.238 214.800,178.370 214.910,178.500 215.300 M220.400 214.942 C 220.400 215.284,224.051 218.800,224.406 218.800 C 225.125 218.800,224.814 218.036,223.900 217.555 C 223.405 217.294,222.569 216.568,222.042 215.941 C 221.221 214.963,220.400 214.464,220.400 214.942 M230.400 215.200 C 230.400 215.420,230.670 215.600,231.000 215.600 C 231.330 215.600,231.600 215.420,231.600 215.200 C 231.600 214.980,231.330 214.800,231.000 214.800 C 230.670 214.800,230.400 214.980,230.400 215.200 M240.477 215.230 C 240.555 215.466,240.791 215.660,241.000 215.660 C 241.209 215.660,241.445 215.466,241.523 215.230 C 241.602 214.994,241.367 214.800,241.000 214.800 C 240.633 214.800,240.398 214.994,240.477 215.230 M272.800 215.200 C 272.800 215.420,273.070 215.600,273.400 215.600 C 273.730 215.600,274.000 215.420,274.000 215.200 C 274.000 214.980,273.730 214.800,273.400 214.800 C 273.070 214.800,272.800 214.980,272.800 215.200 M61.200 215.800 C 61.200 216.130,61.380 216.400,61.600 216.400 C 61.820 216.400,62.000 216.130,62.000 215.800 C 62.000 215.470,61.820 215.200,61.600 215.200 C 61.380 215.200,61.200 215.470,61.200 215.800 M99.600 215.800 C 99.600 216.130,99.780 216.400,100.000 216.400 C 100.220 216.400,100.400 216.130,100.400 215.800 C 100.400 215.470,100.220 215.200,100.000 215.200 C 99.780 215.200,99.600 215.470,99.600 215.800 M150.400 216.000 C 150.400 216.222,151.467 216.400,152.800 216.400 C 154.133 216.400,155.200 216.222,155.200 216.000 C 155.200 215.778,154.133 215.600,152.800 215.600 C 151.467 215.600,150.400 215.778,150.400 216.000 M233.200 215.953 C 233.200 216.384,234.412 216.733,235.100 216.502 C 236.049 216.182,235.597 215.600,234.400 215.600 C 233.740 215.600,233.200 215.759,233.200 215.953 M236.400 215.957 C 236.400 216.463,237.488 216.818,238.200 216.545 C 239.217 216.155,238.864 215.600,237.600 215.600 C 236.940 215.600,236.400 215.761,236.400 215.957 M275.200 216.000 C 275.200 216.220,275.470 216.400,275.800 216.400 C 276.130 216.400,276.400 216.220,276.400 216.000 C 276.400 215.780,276.130 215.600,275.800 215.600 C 275.470 215.600,275.200 215.780,275.200 216.000 M279.600 216.000 C 279.600 216.220,279.960 216.400,280.400 216.400 C 280.840 216.400,281.200 216.220,281.200 216.000 C 281.200 215.780,280.840 215.600,280.400 215.600 C 279.960 215.600,279.600 215.780,279.600 216.000 M328.800 215.938 C 328.800 216.325,330.128 217.600,330.531 217.600 C 330.999 217.600,330.822 216.765,330.229 216.171 C 329.598 215.541,328.800 215.410,328.800 215.938 M265.200 216.418 C 265.200 216.648,265.642 217.278,266.182 217.818 C 267.157 218.793,268.000 219.098,268.000 218.475 C 268.000 218.085,265.875 216.000,265.478 216.000 C 265.325 216.000,265.200 216.188,265.200 216.418 M247.900 217.632 C 247.515 217.856,247.200 218.211,247.200 218.420 C 247.200 219.098,248.194 218.822,248.707 218.000 C 249.254 217.125,248.983 217.001,247.900 217.632 M39.600 218.600 C 39.600 218.930,39.780 219.200,40.000 219.200 C 40.220 219.200,40.400 218.930,40.400 218.600 C 40.400 218.270,40.220 218.000,40.000 218.000 C 39.780 218.000,39.600 218.270,39.600 218.600 M60.400 219.000 C 60.400 219.330,60.580 219.600,60.800 219.600 C 61.020 219.600,61.200 219.330,61.200 219.000 C 61.200 218.670,61.020 218.400,60.800 218.400 C 60.580 218.400,60.400 218.670,60.400 219.000 M287.200 219.200 C 287.200 219.420,287.470 219.600,287.800 219.600 C 288.130 219.600,288.400 219.420,288.400 219.200 C 288.400 218.980,288.130 218.800,287.800 218.800 C 287.470 218.800,287.200 218.980,287.200 219.200 M269.456 219.478 C 269.005 219.928,269.181 220.400,269.800 220.400 C 270.130 220.400,270.400 220.231,270.400 220.024 C 270.400 219.519,269.775 219.158,269.456 219.478 M330.000 219.800 C 330.000 220.130,330.180 220.400,330.400 220.400 C 330.620 220.400,330.800 220.130,330.800 219.800 C 330.800 219.470,330.620 219.200,330.400 219.200 C 330.180 219.200,330.000 219.470,330.000 219.800 M197.067 220.267 C 196.606 220.727,196.775 221.200,197.400 221.200 C 197.730 221.200,198.000 220.930,198.000 220.600 C 198.000 219.975,197.527 219.806,197.067 220.267 M203.600 220.567 C 203.600 220.915,203.885 221.200,204.233 221.200 C 204.940 221.200,204.817 220.339,204.075 220.092 C 203.814 220.005,203.600 220.218,203.600 220.567 M208.267 220.267 C 207.806 220.727,207.975 221.200,208.600 221.200 C 208.930 221.200,209.200 220.930,209.200 220.600 C 209.200 219.975,208.727 219.806,208.267 220.267 M244.789 220.500 C 245.020 220.775,245.580 221.495,246.033 222.100 C 246.882 223.232,247.600 223.535,247.600 222.760 C 247.600 222.240,245.281 220.000,244.742 220.000 C 244.536 220.000,244.556 220.224,244.789 220.500 M62.000 221.200 C 62.000 221.640,62.161 222.000,62.357 222.000 C 62.807 222.000,63.226 220.960,62.906 220.639 C 62.424 220.158,62.000 220.420,62.000 221.200 M144.400 220.800 C 144.400 221.020,144.670 221.200,145.000 221.200 C 145.330 221.200,145.600 221.020,145.600 220.800 C 145.600 220.580,145.330 220.400,145.000 220.400 C 144.670 220.400,144.400 220.580,144.400 220.800 M159.200 220.800 C 159.200 221.020,159.470 221.200,159.800 221.200 C 160.130 221.200,160.400 221.020,160.400 220.800 C 160.400 220.580,160.130 220.400,159.800 220.400 C 159.470 220.400,159.200 220.580,159.200 220.800 M228.400 220.800 C 228.400 221.020,228.670 221.200,229.000 221.200 C 229.330 221.200,229.600 221.020,229.600 220.800 C 229.600 220.580,229.330 220.400,229.000 220.400 C 228.670 220.400,228.400 220.580,228.400 220.800 M284.000 220.800 C 284.000 221.020,284.270 221.200,284.600 221.200 C 284.930 221.200,285.200 221.020,285.200 220.800 C 285.200 220.580,284.930 220.400,284.600 220.400 C 284.270 220.400,284.000 220.580,284.000 220.800 M59.200 221.400 C 59.200 221.730,59.470 222.000,59.800 222.000 C 60.130 222.000,60.400 221.730,60.400 221.400 C 60.400 221.070,60.130 220.800,59.800 220.800 C 59.470 220.800,59.200 221.070,59.200 221.400 M98.000 221.400 C 98.000 221.730,98.180 222.000,98.400 222.000 C 98.620 222.000,98.800 221.730,98.800 221.400 C 98.800 221.070,98.620 220.800,98.400 220.800 C 98.180 220.800,98.000 221.070,98.000 221.400 M147.600 221.600 C 147.600 221.820,147.960 222.000,148.400 222.000 C 148.840 222.000,149.200 221.820,149.200 221.600 C 149.200 221.380,148.840 221.200,148.400 221.200 C 147.960 221.200,147.600 221.380,147.600 221.600 M155.600 221.600 C 155.600 221.820,155.960 222.000,156.400 222.000 C 156.840 222.000,157.200 221.820,157.200 221.600 C 157.200 221.380,156.840 221.200,156.400 221.200 C 155.960 221.200,155.600 221.380,155.600 221.600 M205.200 221.600 C 205.200 221.820,205.740 222.000,206.400 222.000 C 207.060 222.000,207.600 221.820,207.600 221.600 C 207.600 221.380,207.060 221.200,206.400 221.200 C 205.740 221.200,205.200 221.380,205.200 221.600 M231.600 221.600 C 231.600 221.820,231.870 222.000,232.200 222.000 C 232.530 222.000,232.800 221.820,232.800 221.600 C 232.800 221.380,232.530 221.200,232.200 221.200 C 231.870 221.200,231.600 221.380,231.600 221.600 M274.000 221.600 C 274.000 221.820,274.360 222.000,274.800 222.000 C 275.240 222.000,275.600 221.820,275.600 221.600 C 275.600 221.380,275.240 221.200,274.800 221.200 C 274.360 221.200,274.000 221.380,274.000 221.600 M280.800 221.600 C 280.800 221.820,281.250 222.000,281.800 222.000 C 282.350 222.000,282.800 221.820,282.800 221.600 C 282.800 221.380,282.350 221.200,281.800 221.200 C 281.250 221.200,280.800 221.380,280.800 221.600 M42.275 221.859 C 41.476 222.657,42.713 222.800,50.433 222.800 C 57.002 222.800,58.830 222.689,58.700 222.300 C 58.519 221.754,42.802 221.332,42.275 221.859 M239.600 222.829 C 239.600 223.385,240.774 224.560,241.051 224.282 C 241.351 223.983,240.455 222.400,239.986 222.400 C 239.774 222.400,239.600 222.593,239.600 222.829 M61.200 224.200 C 61.200 224.530,61.380 224.800,61.600 224.800 C 61.820 224.800,62.000 224.530,62.000 224.200 C 62.000 223.870,61.820 223.600,61.600 223.600 C 61.380 223.600,61.200 223.870,61.200 224.200 M97.000 224.000 C 96.708 224.472,97.087 225.200,97.624 225.200 C 97.831 225.200,98.000 224.840,98.000 224.400 C 98.000 223.556,97.418 223.324,97.000 224.000 M249.200 225.800 C 249.200 226.130,249.380 226.400,249.600 226.400 C 249.820 226.400,250.000 226.130,250.000 225.800 C 250.000 225.470,249.820 225.200,249.600 225.200 C 249.380 225.200,249.200 225.470,249.200 225.800 M60.400 226.800 C 60.400 227.240,60.561 227.600,60.757 227.600 C 61.207 227.600,61.626 226.560,61.306 226.239 C 60.824 225.758,60.400 226.020,60.400 226.800 M96.400 227.000 C 96.400 227.330,96.580 227.600,96.800 227.600 C 97.020 227.600,97.200 227.330,97.200 227.000 C 97.200 226.670,97.020 226.400,96.800 226.400 C 96.580 226.400,96.400 226.670,96.400 227.000 M243.600 227.629 C 243.600 228.185,244.774 229.360,245.051 229.082 C 245.351 228.783,244.455 227.200,243.986 227.200 C 243.774 227.200,243.600 227.393,243.600 227.629 M249.200 227.800 C 249.200 228.130,249.380 228.400,249.600 228.400 C 249.820 228.400,250.000 228.130,250.000 227.800 C 250.000 227.470,249.820 227.200,249.600 227.200 C 249.380 227.200,249.200 227.470,249.200 227.800 M59.600 229.800 C 59.600 230.130,59.780 230.400,60.000 230.400 C 60.220 230.400,60.400 230.130,60.400 229.800 C 60.400 229.470,60.220 229.200,60.000 229.200 C 59.780 229.200,59.600 229.470,59.600 229.800 M95.400 229.600 C 95.108 230.072,95.487 230.800,96.024 230.800 C 96.231 230.800,96.400 230.440,96.400 230.000 C 96.400 229.156,95.818 228.924,95.400 229.600 M246.000 229.600 C 246.000 229.820,246.360 230.000,246.800 230.000 C 247.240 230.000,247.600 229.820,247.600 229.600 C 247.600 229.380,247.240 229.200,246.800 229.200 C 246.360 229.200,246.000 229.380,246.000 229.600 M58.800 232.400 C 58.800 232.916,59.003 233.199,59.300 233.100 C 59.575 233.008,59.800 232.693,59.800 232.400 C 59.800 232.107,59.575 231.792,59.300 231.700 C 59.003 231.601,58.800 231.884,58.800 232.400 M94.800 232.600 C 94.800 232.930,94.980 233.200,95.200 233.200 C 95.420 233.200,95.600 232.930,95.600 232.600 C 95.600 232.270,95.420 232.000,95.200 232.000 C 94.980 232.000,94.800 232.270,94.800 232.600 M60.900 236.265 C 59.017 237.025,61.994 237.200,76.800 237.200 C 91.714 237.200,94.604 237.025,92.567 236.243 C 91.812 235.953,61.621 235.974,60.900 236.265 " stroke="none" fill="#b8d0ce" fill-rule="evenodd"></path><path id="path2" d="M56.000 164.251 C 56.000 164.499,55.730 164.926,55.400 165.200 C 55.070 165.474,54.800 166.216,54.800 166.849 C 54.800 167.482,54.598 168.000,54.350 168.000 C 54.066 168.000,53.986 168.431,54.133 169.165 C 54.287 169.934,54.168 170.495,53.783 170.814 C 53.462 171.080,53.200 171.906,53.200 172.649 C 53.200 173.392,53.006 174.000,52.768 174.000 C 52.497 174.000,52.434 174.445,52.600 175.200 C 52.801 176.117,52.705 176.461,52.193 176.658 C 51.696 176.849,51.583 177.214,51.755 178.073 C 51.920 178.900,51.811 179.298,51.372 179.466 C 50.928 179.637,50.828 180.018,51.011 180.851 C 51.201 181.714,51.097 182.065,50.593 182.258 C 50.096 182.449,49.983 182.814,50.155 183.673 C 50.317 184.487,50.210 184.898,49.793 185.058 C 49.430 185.197,49.200 185.812,49.200 186.643 C 49.200 187.389,48.998 188.000,48.750 188.000 C 48.462 188.000,48.388 188.438,48.543 189.215 C 48.721 190.103,48.620 190.494,48.168 190.667 C 47.801 190.809,47.578 191.329,47.618 191.952 C 47.725 193.629,47.627 194.064,47.200 193.800 C 46.958 193.651,46.800 194.196,46.800 195.176 C 46.800 196.353,46.965 196.800,47.400 196.800 C 47.730 196.800,48.000 197.070,48.000 197.400 C 48.000 197.924,50.089 198.000,64.400 198.000 C 78.711 198.000,80.800 197.924,80.800 197.400 C 80.800 197.070,81.082 196.800,81.427 196.800 C 81.872 196.800,81.980 196.568,81.799 195.998 C 81.631 195.466,81.755 195.115,82.168 194.957 C 82.583 194.798,82.760 194.295,82.696 193.459 C 82.628 192.570,82.761 192.234,83.148 192.316 C 83.548 192.401,83.646 192.095,83.512 191.179 C 83.387 190.331,83.512 189.855,83.898 189.707 C 84.311 189.549,84.398 189.116,84.215 188.139 C 84.022 187.111,84.114 186.731,84.600 186.545 C 85.036 186.377,85.200 185.904,85.119 185.050 C 85.034 184.160,85.158 183.833,85.547 183.916 C 85.968 184.005,86.033 183.701,85.828 182.611 C 85.619 181.497,85.704 181.135,86.219 180.937 C 86.703 180.751,86.816 180.379,86.645 179.527 C 86.480 178.700,86.589 178.302,87.028 178.134 C 87.472 177.963,87.572 177.582,87.389 176.749 C 87.199 175.886,87.303 175.535,87.807 175.342 C 88.304 175.151,88.417 174.786,88.245 173.927 C 88.080 173.100,88.189 172.702,88.628 172.534 C 89.072 172.363,89.172 171.982,88.989 171.149 C 88.799 170.286,88.903 169.935,89.407 169.742 C 89.904 169.551,90.017 169.186,89.845 168.327 C 89.683 167.513,89.790 167.102,90.207 166.942 C 91.198 166.562,90.961 164.453,89.900 164.206 C 87.935 163.748,56.000 163.790,56.000 164.251 M90.400 178.600 C 90.400 178.930,90.108 179.200,89.750 179.200 C 89.239 179.200,89.152 179.460,89.343 180.415 C 89.520 181.300,89.419 181.694,88.972 181.866 C 88.528 182.037,88.428 182.418,88.611 183.251 C 88.801 184.114,88.697 184.465,88.193 184.658 C 87.701 184.847,87.583 185.215,87.749 186.045 C 87.908 186.842,87.784 187.281,87.327 187.537 C 86.850 187.804,86.745 188.227,86.930 189.150 C 87.126 190.130,87.043 190.400,86.545 190.400 C 86.037 190.400,85.963 190.678,86.175 191.805 C 86.372 192.859,86.289 193.268,85.842 193.439 C 85.069 193.736,85.120 196.800,85.898 196.800 C 86.188 196.800,86.529 197.070,86.655 197.400 C 86.850 197.906,88.161 198.000,95.043 198.000 C 102.027 198.000,103.200 197.914,103.200 197.400 C 103.200 197.070,103.378 196.800,103.595 196.800 C 103.812 196.800,104.258 196.157,104.586 195.371 C 104.992 194.400,105.346 194.040,105.692 194.248 C 106.094 194.490,106.099 194.429,105.717 193.956 C 105.121 193.219,105.490 191.600,106.254 191.600 C 106.662 191.600,106.742 191.309,106.549 190.538 C 106.355 189.765,106.475 189.335,106.990 188.958 C 107.496 188.588,107.624 188.148,107.439 187.412 C 107.256 186.685,107.359 186.314,107.786 186.150 C 108.182 185.998,108.359 185.481,108.296 184.659 C 108.228 183.770,108.361 183.434,108.748 183.516 C 109.148 183.601,109.246 183.295,109.112 182.379 C 108.992 181.561,109.114 181.054,109.464 180.920 C 110.084 180.682,110.195 179.600,109.600 179.600 C 109.380 179.600,109.200 179.240,109.200 178.800 C 109.200 178.023,108.933 178.000,99.800 178.000 C 91.711 178.000,90.400 178.084,90.400 178.600 M45.600 202.600 C 45.600 202.930,45.318 203.200,44.973 203.200 C 44.528 203.200,44.420 203.432,44.601 204.002 C 44.770 204.535,44.645 204.885,44.228 205.045 C 43.828 205.198,43.600 205.779,43.600 206.643 C 43.600 207.389,43.400 208.000,43.155 208.000 C 42.864 208.000,42.802 208.483,42.975 209.405 C 43.180 210.503,43.094 210.866,42.581 211.063 C 42.097 211.249,41.984 211.621,42.155 212.473 C 42.313 213.266,42.209 213.698,41.823 213.846 C 41.427 213.999,41.326 214.465,41.481 215.424 C 41.645 216.431,41.541 216.848,41.081 217.024 C 40.620 217.201,40.512 217.640,40.662 218.731 C 40.940 220.755,41.623 222.076,42.165 221.639 C 42.404 221.447,44.442 221.218,46.694 221.130 C 49.171 221.035,50.980 220.780,51.274 220.486 C 51.541 220.219,52.174 220.000,52.680 220.000 C 53.186 220.000,53.600 219.820,53.600 219.600 C 53.600 219.380,53.865 219.200,54.188 219.200 C 54.511 219.200,55.417 218.840,56.200 218.400 C 56.983 217.960,57.951 217.600,58.350 217.600 C 59.247 217.600,60.400 216.380,60.400 215.431 C 60.400 215.043,60.764 214.630,61.208 214.514 C 61.824 214.353,61.913 214.177,61.581 213.777 C 61.052 213.139,61.808 211.434,62.446 211.828 C 62.709 211.991,62.756 211.575,62.582 210.644 C 62.380 209.571,62.460 209.152,62.897 208.984 C 63.269 208.841,63.414 208.406,63.295 207.785 C 63.172 207.143,63.322 206.728,63.732 206.571 C 64.483 206.283,64.507 203.200,63.758 203.200 C 63.498 203.200,63.182 202.930,63.055 202.600 C 62.861 202.092,61.499 202.000,54.213 202.000 C 46.824 202.000,45.600 202.085,45.600 202.600 M69.055 202.600 C 68.929 202.930,68.561 203.200,68.237 203.200 C 67.844 203.200,67.674 203.565,67.725 204.300 C 67.769 204.946,67.610 205.364,67.340 205.313 C 67.028 205.254,66.948 205.737,67.093 206.813 C 67.270 208.135,67.189 208.400,66.610 208.400 C 66.104 208.400,65.993 208.590,66.205 209.100 C 66.531 209.886,66.531 209.878,66.163 212.500 C 65.938 214.099,65.999 214.400,66.548 214.400 C 66.907 214.400,67.200 214.220,67.200 214.000 C 67.200 213.780,67.549 213.600,67.976 213.600 C 68.403 213.600,68.864 213.420,69.000 213.200 C 69.136 212.980,69.687 212.800,70.224 212.800 C 70.761 212.800,71.200 212.620,71.200 212.400 C 71.200 212.180,71.465 212.000,71.788 212.000 C 72.111 212.000,73.017 211.640,73.800 211.200 C 74.583 210.760,75.483 210.400,75.800 210.400 C 76.117 210.400,77.017 210.040,77.800 209.600 C 78.583 209.160,79.483 208.800,79.800 208.800 C 80.117 208.800,81.017 208.440,81.800 208.000 C 82.583 207.560,83.579 207.200,84.012 207.200 C 84.445 207.200,84.800 207.020,84.800 206.800 C 84.800 206.580,85.149 206.400,85.576 206.400 C 86.003 206.400,86.464 206.220,86.600 206.000 C 86.736 205.780,87.287 205.600,87.824 205.600 C 88.361 205.600,88.800 205.420,88.800 205.200 C 88.800 204.980,89.049 204.800,89.354 204.800 C 89.659 204.800,90.387 204.552,90.972 204.248 C 92.261 203.580,90.778 203.386,81.000 202.950 C 77.424 202.790,75.323 202.555,75.800 202.369 C 76.282 202.181,75.144 202.045,72.943 202.028 C 70.043 202.006,69.238 202.124,69.055 202.600 " stroke="none" fill="#0eecd1" fill-rule="evenodd"></path><path id="path3" d="M105.539 192.300 C 105.441 193.428,105.355 193.720,104.654 195.300 C 104.289 196.125,103.812 196.800,103.595 196.800 C 103.378 196.800,103.200 197.070,103.200 197.400 C 103.200 197.730,103.380 198.000,103.600 198.000 C 103.820 198.000,104.000 197.730,104.000 197.400 C 104.000 197.070,104.270 196.800,104.600 196.800 C 104.933 196.800,105.200 196.444,105.200 196.000 C 105.200 195.560,105.383 195.200,105.606 195.200 C 105.835 195.200,105.921 194.690,105.805 194.029 C 105.671 193.269,105.820 192.638,106.228 192.229 C 106.800 191.657,106.800 191.600,106.229 191.600 C 105.883 191.600,105.573 191.915,105.539 192.300 M75.800 202.369 C 75.323 202.555,77.424 202.790,81.000 202.950 C 90.778 203.386,92.261 203.580,90.972 204.248 C 90.387 204.552,89.659 204.800,89.354 204.800 C 89.049 204.800,88.800 204.980,88.800 205.200 C 88.800 205.420,88.361 205.600,87.824 205.600 C 87.287 205.600,86.736 205.780,86.600 206.000 C 86.464 206.220,86.003 206.400,85.576 206.400 C 85.149 206.400,84.800 206.580,84.800 206.800 C 84.800 207.020,84.445 207.200,84.012 207.200 C 83.579 207.200,82.583 207.560,81.800 208.000 C 81.017 208.440,80.117 208.800,79.800 208.800 C 79.483 208.800,78.583 209.160,77.800 209.600 C 77.017 210.040,76.117 210.400,75.800 210.400 C 75.483 210.400,74.583 210.760,73.800 211.200 C 73.017 211.640,72.111 212.000,71.788 212.000 C 71.465 212.000,71.200 212.180,71.200 212.400 C 71.200 212.620,70.761 212.800,70.224 212.800 C 69.687 212.800,69.136 212.980,69.000 213.200 C 68.864 213.420,68.403 213.600,67.976 213.600 C 67.549 213.600,67.200 213.780,67.200 214.000 C 67.200 214.220,66.930 214.400,66.600 214.400 C 65.911 214.400,65.784 212.619,66.365 211.093 C 66.581 210.525,66.583 209.902,66.371 209.567 C 66.080 209.107,66.011 209.132,66.006 209.700 C 66.003 210.085,65.797 210.400,65.550 210.400 C 65.266 210.400,65.186 210.831,65.333 211.565 C 65.487 212.334,65.368 212.895,64.983 213.214 C 64.662 213.480,64.400 214.317,64.400 215.073 C 64.400 215.887,64.237 216.346,64.000 216.200 C 63.762 216.053,63.600 216.529,63.600 217.376 C 63.600 218.159,63.414 218.800,63.187 218.800 C 62.961 218.800,62.820 219.462,62.874 220.271 C 62.933 221.149,62.777 221.808,62.487 221.904 C 62.219 221.994,62.000 222.682,62.000 223.433 C 62.000 224.185,61.817 224.800,61.594 224.800 C 61.370 224.800,61.231 225.371,61.284 226.070 C 61.339 226.794,61.170 227.410,60.890 227.503 C 60.621 227.593,60.400 228.282,60.400 229.033 C 60.400 229.785,60.198 230.400,59.950 230.400 C 59.662 230.400,59.588 230.838,59.743 231.615 C 59.917 232.487,59.818 232.895,59.393 233.058 C 59.019 233.201,58.800 233.824,58.800 234.743 L 58.800 236.200 76.300 236.200 C 95.568 236.200,94.800 236.307,94.800 233.629 C 94.800 232.689,94.990 232.000,95.250 232.000 C 95.538 232.000,95.612 231.562,95.457 230.785 C 95.283 229.913,95.382 229.505,95.807 229.342 C 96.170 229.203,96.400 228.588,96.400 227.757 C 96.400 227.011,96.603 226.400,96.850 226.400 C 97.138 226.400,97.212 225.962,97.057 225.185 C 96.883 224.313,96.982 223.905,97.407 223.742 C 97.770 223.603,98.000 222.988,98.000 222.157 C 98.000 221.411,98.180 220.800,98.400 220.800 C 98.620 220.800,98.800 220.170,98.800 219.400 C 98.800 218.630,98.980 218.000,99.200 218.000 C 99.420 218.000,99.600 217.370,99.600 216.600 C 99.600 215.830,99.780 215.200,100.000 215.200 C 100.220 215.200,100.400 214.480,100.400 213.600 C 100.400 212.720,100.580 212.000,100.800 212.000 C 101.020 212.000,101.200 211.370,101.200 210.600 C 101.200 209.830,101.380 209.200,101.600 209.200 C 101.820 209.200,102.000 208.570,102.000 207.800 C 102.000 207.030,102.180 206.400,102.400 206.400 C 102.620 206.400,102.800 205.680,102.800 204.800 C 102.800 203.644,102.633 203.200,102.200 203.200 C 101.870 203.200,101.600 202.930,101.600 202.600 C 101.600 201.937,77.458 201.721,75.800 202.369 M67.304 204.619 C 66.989 204.961,66.953 205.248,67.207 205.404 C 67.426 205.540,67.717 205.362,67.852 205.008 C 68.183 204.147,67.914 203.957,67.304 204.619 M62.550 209.387 C 62.426 209.710,62.417 210.205,62.531 210.487 C 62.660 210.809,62.749 210.740,62.768 210.300 C 62.786 209.915,62.980 209.600,63.200 209.600 C 63.420 209.600,63.600 209.420,63.600 209.200 C 63.600 208.585,62.803 208.726,62.550 209.387 M61.583 212.432 C 61.252 213.049,61.247 213.407,61.563 213.723 C 61.879 214.039,62.000 213.926,62.000 213.313 C 62.000 212.848,62.216 212.395,62.480 212.307 C 62.838 212.187,62.843 212.074,62.500 211.862 C 62.236 211.698,61.846 211.940,61.583 212.432 M60.667 214.667 C 60.520 214.813,60.400 215.235,60.400 215.605 C 60.400 216.436,59.163 217.600,58.281 217.600 C 57.920 217.600,56.983 217.960,56.200 218.400 C 55.417 218.840,54.511 219.200,54.188 219.200 C 53.865 219.200,53.600 219.380,53.600 219.600 C 53.600 219.820,53.186 220.000,52.680 220.000 C 52.174 220.000,51.541 220.219,51.274 220.486 C 50.979 220.781,49.177 221.033,46.694 221.126 C 39.447 221.399,41.782 221.800,50.621 221.800 C 57.218 221.800,59.200 221.684,59.200 221.300 C 59.200 221.025,59.470 220.800,59.800 220.800 C 60.200 220.800,60.400 220.400,60.400 219.600 C 60.400 218.940,60.575 218.400,60.788 218.400 C 61.001 218.400,61.151 217.735,61.120 216.923 C 61.089 216.104,61.273 215.376,61.532 215.289 C 61.790 215.203,62.000 214.968,62.000 214.767 C 62.000 214.343,61.061 214.273,60.667 214.667 M40.800 216.400 C 40.483 216.596,40.356 216.889,40.518 217.052 C 40.681 217.214,41.023 217.137,41.280 216.880 C 41.884 216.276,41.547 215.938,40.800 216.400 M40.464 218.500 C 40.429 218.885,40.220 219.200,40.000 219.200 C 39.255 219.200,39.595 221.004,40.439 221.531 C 41.398 222.130,41.922 221.870,41.290 221.108 C 41.056 220.827,40.789 219.968,40.697 219.198 C 40.604 218.429,40.499 218.115,40.464 218.500 " stroke="none" fill="#1cdcf8" fill-rule="evenodd"></path><path id="path4" d="M149.200 182.372 C 149.200 182.577,148.795 182.822,148.300 182.918 C 147.805 183.013,149.650 183.091,152.400 183.091 C 155.150 183.091,156.995 183.013,156.500 182.918 C 156.005 182.822,155.600 182.577,155.600 182.372 C 155.600 182.167,154.160 182.000,152.400 182.000 C 150.640 182.000,149.200 182.167,149.200 182.372 M233.200 182.372 C 233.200 182.577,232.795 182.822,232.300 182.918 C 231.805 183.013,233.470 183.091,236.000 183.091 C 238.530 183.091,240.195 183.013,239.700 182.918 C 239.205 182.822,238.800 182.577,238.800 182.372 C 238.800 182.167,237.540 182.000,236.000 182.000 C 234.460 182.000,233.200 182.167,233.200 182.372 M145.600 183.200 C 145.600 183.420,145.150 183.600,144.600 183.600 C 144.050 183.600,143.600 183.780,143.600 184.000 C 143.600 184.220,143.240 184.400,142.800 184.400 C 142.360 184.400,142.000 184.580,142.000 184.800 C 142.000 185.020,141.640 185.200,141.200 185.200 C 140.760 185.200,140.400 185.379,140.400 185.598 C 140.400 186.174,136.570 190.000,135.993 190.000 C 135.699 190.000,135.592 190.326,135.722 190.824 C 135.854 191.329,135.717 191.734,135.369 191.867 C 134.666 192.137,134.618 192.800,135.302 192.800 C 135.579 192.800,136.063 192.217,136.378 191.504 C 136.694 190.791,137.728 189.421,138.676 188.459 C 139.624 187.497,140.400 186.551,140.400 186.355 C 140.400 186.160,140.535 186.019,140.700 186.043 C 141.304 186.130,142.800 185.497,142.800 185.153 C 142.800 184.959,143.160 184.800,143.600 184.800 C 144.040 184.800,144.400 184.620,144.400 184.400 C 144.400 184.180,144.940 184.000,145.600 184.000 C 146.400 184.000,146.800 183.800,146.800 183.400 C 146.800 183.070,146.530 182.800,146.200 182.800 C 145.870 182.800,145.600 182.980,145.600 183.200 M158.098 183.300 C 158.188 183.575,158.743 183.857,159.331 183.927 C 159.919 183.996,160.400 184.221,160.400 184.427 C 160.400 184.632,160.760 184.800,161.200 184.800 C 161.644 184.800,162.000 184.533,162.000 184.200 C 162.000 183.781,161.578 183.600,160.600 183.600 C 159.830 183.600,159.200 183.420,159.200 183.200 C 159.200 182.980,158.915 182.800,158.567 182.800 C 158.218 182.800,158.007 183.025,158.098 183.300 M172.900 183.398 C 172.260 184.125,172.163 218.800,172.800 218.800 C 173.020 218.800,173.200 219.083,173.200 219.429 C 173.200 220.237,174.163 221.200,174.971 221.200 C 175.892 221.200,175.743 220.744,174.500 219.753 L 173.400 218.876 173.400 201.606 C 173.400 185.679,173.454 184.296,174.094 183.828 C 174.475 183.549,174.670 183.204,174.527 183.060 C 174.112 182.645,173.441 182.784,172.900 183.398 M204.100 183.398 C 203.483 184.099,203.452 184.800,204.037 184.800 C 204.278 184.800,204.569 184.440,204.684 184.000 C 204.943 183.010,207.380 182.851,207.745 183.800 C 207.871 184.130,208.251 184.400,208.587 184.400 C 209.075 184.400,209.037 184.237,208.400 183.600 C 207.455 182.655,204.862 182.533,204.100 183.398 M229.600 183.200 C 229.600 183.420,228.970 183.600,228.200 183.600 C 227.430 183.600,226.800 183.780,226.800 184.000 C 226.800 184.220,226.518 184.400,226.174 184.400 C 225.509 184.400,221.600 188.190,221.600 188.835 C 221.600 189.045,221.150 189.422,220.600 189.673 C 219.948 189.970,219.600 190.454,219.600 191.064 C 219.600 191.579,219.420 192.000,219.200 192.000 C 218.980 192.000,218.800 192.360,218.800 192.800 C 218.800 193.240,218.620 193.600,218.400 193.600 C 218.180 193.600,218.000 193.780,218.000 194.000 C 218.000 194.786,218.751 194.381,219.297 193.300 C 220.112 191.686,220.945 190.293,221.400 189.781 C 223.934 186.932,224.969 186.043,226.826 185.120 C 228.022 184.527,229.345 183.987,229.767 183.920 C 230.708 183.773,231.113 182.800,230.233 182.800 C 229.885 182.800,229.600 182.980,229.600 183.200 M241.600 183.400 C 241.600 183.799,241.968 183.984,242.700 183.954 C 243.377 183.925,243.531 183.837,243.100 183.724 C 242.715 183.624,242.400 183.375,242.400 183.171 C 242.400 182.967,242.220 182.800,242.000 182.800 C 241.780 182.800,241.600 183.070,241.600 183.400 M262.800 183.800 C 262.800 184.350,262.620 184.800,262.400 184.800 C 262.142 184.800,262.000 189.067,262.000 196.800 C 262.000 203.964,262.150 208.800,262.373 208.800 C 262.579 208.800,262.822 209.295,262.913 209.900 C 263.005 210.505,263.107 205.026,263.140 197.724 C 263.178 189.370,263.348 184.356,263.600 184.200 C 264.218 183.818,264.073 182.800,263.400 182.800 C 263.027 182.800,262.800 183.178,262.800 183.800 M266.400 183.320 C 266.400 183.606,266.577 184.017,266.794 184.234 C 267.030 184.470,267.230 189.418,267.294 196.581 C 267.375 205.711,267.518 208.573,267.900 208.700 C 268.293 208.831,268.400 206.282,268.400 196.833 C 268.400 189.078,268.258 184.800,268.000 184.800 C 267.780 184.800,267.600 184.350,267.600 183.800 C 267.600 183.178,267.373 182.800,267.000 182.800 C 266.670 182.800,266.400 183.034,266.400 183.320 M289.115 183.619 C 288.738 184.032,288.597 184.474,288.802 184.601 C 289.006 184.727,289.403 184.464,289.683 184.016 C 289.977 183.545,290.619 183.200,291.200 183.200 C 291.781 183.200,292.423 183.545,292.717 184.016 C 292.997 184.464,293.394 184.727,293.598 184.601 C 293.803 184.474,293.617 184.017,293.185 183.585 C 292.188 182.588,290.038 182.606,289.115 183.619 M304.100 183.398 C 303.546 184.027,303.434 184.807,303.900 184.787 C 304.442 184.764,305.600 183.721,305.600 183.256 C 305.600 182.626,304.705 182.711,304.100 183.398 M328.400 183.357 C 328.400 183.664,328.681 184.022,329.026 184.154 C 329.455 184.319,329.612 184.798,329.526 185.682 C 329.353 187.448,328.965 187.513,318.300 187.560 C 312.527 187.585,309.200 187.746,309.200 188.000 C 309.200 188.256,312.656 188.400,318.769 188.400 L 328.338 188.400 329.569 187.169 C 330.780 185.959,331.186 184.800,330.400 184.800 C 330.180 184.800,330.000 184.607,330.000 184.371 C 330.000 183.922,329.021 182.800,328.629 182.800 C 328.503 182.800,328.400 183.051,328.400 183.357 M244.000 184.200 C 244.000 184.530,244.270 184.800,244.600 184.800 C 244.930 184.800,245.200 184.530,245.200 184.200 C 245.200 183.870,244.930 183.600,244.600 183.600 C 244.270 183.600,244.000 183.870,244.000 184.200 M162.400 185.000 C 162.400 185.330,162.670 185.600,163.000 185.600 C 163.330 185.600,163.600 185.330,163.600 185.000 C 163.600 184.670,163.330 184.400,163.000 184.400 C 162.670 184.400,162.400 184.670,162.400 185.000 M177.654 200.100 C 177.608 213.661,177.684 216.000,178.173 216.000 C 178.660 216.000,178.752 213.706,178.786 200.769 C 178.811 191.127,178.684 185.624,178.441 185.774 C 178.230 185.905,177.979 185.604,177.883 185.106 C 177.787 184.608,177.684 191.355,177.654 200.100 M245.600 185.000 C 245.600 185.330,245.795 185.600,246.034 185.600 C 246.272 185.600,247.455 186.545,248.662 187.700 C 250.993 189.931,251.600 190.330,251.600 189.633 C 251.600 189.395,251.420 189.200,251.200 189.200 C 250.980 189.200,250.800 188.917,250.800 188.571 C 250.800 187.708,250.004 186.988,248.682 186.656 C 248.064 186.501,247.373 185.940,247.122 185.389 C 246.629 184.306,245.600 184.043,245.600 185.000 M164.000 185.629 C 164.000 185.864,164.257 186.314,164.571 186.629 C 165.246 187.303,166.000 187.378,166.000 186.771 C 166.000 186.536,165.743 186.086,165.429 185.771 C 164.754 185.097,164.000 185.022,164.000 185.629 M303.783 201.800 C 303.783 211.040,303.836 214.763,303.900 210.073 C 303.964 205.383,303.964 197.823,303.899 193.273 C 303.835 188.723,303.783 192.560,303.783 201.800 M148.411 187.787 C 147.972 188.316,148.074 188.400,149.151 188.400 C 149.838 188.400,150.400 188.220,150.400 188.000 C 150.400 187.778,151.467 187.600,152.800 187.600 C 154.133 187.600,155.200 187.778,155.200 188.000 C 155.200 188.220,155.665 188.400,156.233 188.400 C 156.882 188.400,157.205 188.214,157.101 187.900 C 156.833 187.093,149.071 186.992,148.411 187.787 M231.800 187.600 C 231.664 187.820,231.113 188.000,230.576 188.000 C 229.975 188.000,229.600 188.231,229.600 188.600 C 229.600 188.930,229.780 189.200,230.000 189.200 C 230.220 189.200,230.400 189.020,230.400 188.800 C 230.400 188.580,231.030 188.400,231.800 188.400 C 232.570 188.400,233.200 188.231,233.200 188.025 C 233.200 187.819,233.785 187.578,234.500 187.489 C 235.513 187.364,235.386 187.314,233.924 187.264 C 232.892 187.229,231.936 187.380,231.800 187.600 M238.100 187.476 C 238.485 187.576,238.800 187.825,238.800 188.029 C 238.800 188.233,239.430 188.400,240.200 188.400 C 240.970 188.400,241.600 188.580,241.600 188.800 C 241.600 189.020,241.780 189.200,242.000 189.200 C 242.220 189.200,242.400 188.930,242.400 188.600 C 242.400 188.231,242.025 188.000,241.424 188.000 C 240.887 188.000,240.336 187.820,240.200 187.600 C 240.064 187.380,239.378 187.221,238.676 187.246 C 237.974 187.272,237.715 187.375,238.100 187.476 M145.008 188.983 C 142.907 190.207,140.800 192.067,140.800 192.696 C 140.800 192.973,140.665 193.201,140.500 193.203 C 140.134 193.207,139.200 195.150,139.200 195.908 C 139.200 196.351,139.316 196.341,139.800 195.857 C 140.130 195.527,140.400 194.854,140.400 194.362 C 140.400 193.870,140.510 193.577,140.644 193.711 C 140.779 193.845,141.939 192.885,143.222 191.578 C 144.506 190.270,145.759 189.200,146.006 189.200 C 146.254 189.200,146.727 188.930,147.057 188.600 C 147.977 187.680,146.898 187.882,145.008 188.983 M158.000 188.645 C 158.000 189.139,158.290 189.248,159.237 189.109 C 160.040 188.991,160.546 189.116,160.680 189.464 C 160.943 190.150,161.600 190.162,161.600 189.480 C 161.600 189.195,161.002 188.745,160.272 188.480 C 158.497 187.839,158.000 187.875,158.000 188.645 M164.800 189.200 C 164.800 189.420,164.170 189.600,163.400 189.600 C 162.422 189.600,162.000 189.781,162.000 190.200 C 162.000 190.600,162.400 190.800,163.200 190.800 C 163.860 190.800,164.400 190.620,164.400 190.400 C 164.400 190.180,164.760 190.000,165.200 190.000 C 165.644 190.000,166.000 189.733,166.000 189.400 C 166.000 189.070,165.730 188.800,165.400 188.800 C 165.070 188.800,164.800 188.980,164.800 189.200 M226.159 190.921 C 224.754 192.228,223.977 193.240,224.156 193.528 C 224.618 194.277,225.200 194.077,225.200 193.169 C 225.200 192.095,227.295 190.000,228.369 190.000 C 229.223 190.000,229.490 189.426,228.826 189.016 C 228.621 188.889,227.420 189.746,226.159 190.921 M243.067 189.067 C 242.562 189.571,242.801 190.000,243.586 190.000 C 244.533 190.000,246.800 192.119,246.800 193.005 C 246.800 193.352,247.250 194.086,247.800 194.636 C 248.350 195.186,248.800 195.476,248.800 195.280 C 248.800 194.525,247.485 192.335,246.760 191.882 C 246.342 191.621,246.000 191.215,246.000 190.979 C 246.000 190.743,245.467 190.157,244.816 189.675 C 243.505 188.706,243.447 188.686,243.067 189.067 M251.514 190.220 C 251.237 190.497,252.096 192.393,252.500 192.397 C 252.665 192.399,252.800 192.760,252.800 193.200 C 252.800 193.644,253.067 194.000,253.400 194.000 C 253.730 194.000,254.000 193.820,254.000 193.600 C 254.000 193.380,253.820 193.200,253.600 193.200 C 253.380 193.200,253.200 192.840,253.200 192.400 C 253.200 191.960,253.020 191.600,252.800 191.600 C 252.580 191.600,252.400 191.240,252.400 190.800 C 252.400 190.033,251.977 189.756,251.514 190.220 M134.000 194.600 C 134.000 195.370,133.820 196.000,133.600 196.000 C 133.380 196.000,133.200 196.375,133.200 196.833 C 133.200 198.097,134.178 197.524,134.335 196.169 C 134.410 195.526,134.650 194.783,134.870 194.518 C 135.297 194.001,134.997 193.200,134.376 193.200 C 134.169 193.200,134.000 193.830,134.000 194.600 M223.200 195.000 C 223.200 195.330,223.470 195.600,223.800 195.600 C 224.130 195.600,224.400 195.330,224.400 195.000 C 224.400 194.670,224.130 194.400,223.800 194.400 C 223.470 194.400,223.200 194.670,223.200 195.000 M217.700 195.422 C 217.095 196.080,217.040 197.200,217.613 197.200 C 218.120 197.200,218.514 196.250,218.334 195.463 C 218.221 194.972,218.120 194.965,217.700 195.422 M253.672 195.700 C 253.742 196.195,253.980 196.600,254.200 196.600 C 254.420 196.600,254.658 196.195,254.728 195.700 C 254.816 195.081,254.651 194.800,254.200 194.800 C 253.749 194.800,253.584 195.081,253.672 195.700 M222.667 196.267 C 222.163 196.770,222.400 198.000,223.000 198.000 C 223.373 198.000,223.600 197.622,223.600 197.000 C 223.600 196.029,223.211 195.723,222.667 196.267 M248.400 196.400 C 248.400 196.620,248.567 196.800,248.771 196.800 C 248.975 196.800,249.224 197.115,249.324 197.500 C 249.437 197.931,249.525 197.777,249.554 197.100 C 249.584 196.368,249.399 196.000,249.000 196.000 C 248.670 196.000,248.400 196.180,248.400 196.400 M138.454 198.300 C 138.488 199.229,138.575 199.457,138.682 198.900 C 138.778 198.405,139.023 198.000,139.228 198.000 C 139.433 198.000,139.600 197.730,139.600 197.400 C 139.600 197.070,139.330 196.800,139.000 196.800 C 138.564 196.800,138.415 197.209,138.454 198.300 M254.520 202.000 C 254.520 204.750,254.595 206.502,254.687 205.893 C 254.779 205.284,255.022 204.890,255.227 205.017 C 255.445 205.151,255.600 203.990,255.600 202.224 C 255.600 200.561,255.432 199.200,255.227 199.200 C 255.021 199.200,254.778 198.705,254.687 198.100 C 254.595 197.495,254.520 199.250,254.520 202.000 M217.200 199.000 C 217.200 199.550,217.020 200.000,216.800 200.000 C 216.580 200.000,216.400 200.900,216.400 202.000 C 216.400 203.100,216.568 204.000,216.773 204.000 C 216.979 204.000,217.222 204.495,217.313 205.100 C 217.405 205.705,217.507 204.355,217.540 202.100 C 217.573 199.845,217.510 198.000,217.400 198.000 C 217.290 198.000,217.200 198.450,217.200 199.000 M249.200 202.000 C 249.200 204.436,249.327 205.224,249.700 205.100 C 250.039 204.987,250.200 203.991,250.200 202.000 C 250.200 200.009,250.039 199.013,249.700 198.900 C 249.327 198.776,249.200 199.564,249.200 202.000 M308.832 199.285 C 308.803 199.909,309.599 199.983,317.700 200.103 C 322.595 200.176,327.050 200.364,327.600 200.522 C 328.384 200.747,328.340 200.682,327.400 200.222 C 326.465 199.766,324.330 199.632,317.733 199.618 C 311.348 199.604,309.217 199.477,309.065 199.100 C 308.942 198.796,308.851 198.868,308.832 199.285 M221.762 200.154 C 221.390 201.123,221.780 204.131,222.300 204.302 C 222.663 204.422,222.800 203.801,222.800 202.033 C 222.800 199.765,222.276 198.816,221.762 200.154 M133.309 202.000 C 133.309 202.990,133.387 203.395,133.482 202.900 C 133.578 202.405,133.578 201.595,133.482 201.100 C 133.387 200.605,133.309 201.010,133.309 202.000 M308.806 204.700 C 308.810 205.190,308.906 205.252,309.125 204.908 C 309.353 204.549,311.814 204.385,318.219 204.300 L 327.000 204.184 317.900 204.092 C 309.463 204.007,308.800 204.051,308.806 204.700 M138.454 205.700 C 138.415 206.791,138.564 207.200,139.000 207.200 C 139.330 207.200,139.600 206.930,139.600 206.600 C 139.600 206.270,139.433 206.000,139.228 206.000 C 139.023 206.000,138.778 205.595,138.682 205.100 C 138.575 204.543,138.488 204.771,138.454 205.700 M222.464 206.804 C 222.539 207.317,222.825 207.811,223.100 207.902 C 223.806 208.135,223.721 207.264,222.964 206.507 C 222.382 205.925,222.339 205.950,222.464 206.804 M249.200 206.600 C 249.200 206.930,249.020 207.200,248.800 207.200 C 248.580 207.200,248.400 207.380,248.400 207.600 C 248.400 207.820,248.670 208.000,249.000 208.000 C 249.373 208.000,249.600 207.622,249.600 207.000 C 249.600 206.450,249.510 206.000,249.400 206.000 C 249.290 206.000,249.200 206.270,249.200 206.600 M133.200 207.133 C 133.200 207.573,133.408 208.003,133.663 208.088 C 133.918 208.173,134.110 208.818,134.090 209.521 C 134.054 210.780,134.505 211.201,135.011 210.382 C 135.153 210.153,135.089 209.748,134.870 209.482 C 134.650 209.217,134.410 208.474,134.335 207.831 C 134.181 206.500,133.200 205.897,133.200 207.133 M217.200 207.629 C 217.200 207.864,217.470 208.327,217.800 208.657 C 218.333 209.190,218.400 209.143,218.400 208.229 C 218.400 207.581,218.178 207.200,217.800 207.200 C 217.470 207.200,217.200 207.393,217.200 207.629 M139.246 208.020 C 139.189 208.790,140.093 210.793,140.500 210.797 C 140.665 210.799,140.800 210.998,140.800 211.240 C 140.800 211.943,143.247 214.121,145.138 215.100 C 147.181 216.158,147.600 216.209,147.600 215.400 C 147.600 215.021,147.218 214.800,146.560 214.800 C 145.921 214.800,145.089 214.338,144.400 213.600 C 143.783 212.940,142.991 212.400,142.640 212.400 C 142.274 212.400,142.000 212.069,142.000 211.627 C 142.000 211.202,141.640 210.740,141.200 210.600 C 140.760 210.460,140.400 209.998,140.400 209.573 C 140.400 209.148,140.233 208.800,140.029 208.800 C 139.825 208.800,139.576 208.485,139.476 208.100 C 139.335 207.562,139.282 207.544,139.246 208.020 M253.600 208.400 C 253.600 208.844,253.867 209.200,254.200 209.200 C 254.533 209.200,254.800 208.844,254.800 208.400 C 254.800 207.956,254.533 207.600,254.200 207.600 C 253.867 207.600,253.600 207.956,253.600 208.400 M288.400 208.400 C 288.400 208.840,288.220 209.200,288.000 209.200 C 287.780 209.200,287.600 209.470,287.600 209.800 C 287.600 210.130,287.870 210.400,288.200 210.400 C 288.619 210.400,288.800 209.978,288.800 209.000 C 288.800 208.230,288.710 207.600,288.600 207.600 C 288.490 207.600,288.400 207.960,288.400 208.400 M223.200 209.000 C 223.200 209.330,223.470 209.600,223.800 209.600 C 224.130 209.600,224.400 209.330,224.400 209.000 C 224.400 208.670,224.130 208.400,223.800 208.400 C 223.470 208.400,223.200 208.670,223.200 209.000 M247.665 209.474 C 247.151 210.007,246.829 210.698,246.949 211.010 C 247.069 211.323,246.859 211.758,246.483 211.977 C 245.890 212.323,245.884 212.377,246.437 212.388 C 247.022 212.399,249.147 208.987,248.764 208.651 C 248.674 208.572,248.179 208.942,247.665 209.474 M293.067 209.467 C 292.920 209.613,292.800 210.166,292.800 210.695 C 292.800 211.550,292.867 211.590,293.400 211.057 C 293.730 210.727,294.000 210.174,294.000 209.829 C 294.000 209.179,293.534 208.999,293.067 209.467 M218.000 210.000 C 218.000 210.220,218.180 210.400,218.400 210.400 C 218.620 210.400,218.800 210.760,218.800 211.200 C 218.800 211.640,218.980 212.000,219.200 212.000 C 219.420 212.000,219.600 212.450,219.600 213.000 C 219.600 213.957,219.989 214.278,220.513 213.754 C 220.827 213.439,218.836 209.600,218.358 209.600 C 218.161 209.600,218.000 209.780,218.000 210.000 M224.002 210.500 C 224.005 211.474,228.191 215.376,228.818 214.989 C 229.489 214.574,229.228 214.000,228.369 214.000 C 227.912 214.000,227.012 213.474,226.369 212.831 C 225.726 212.188,225.200 211.288,225.200 210.831 C 225.200 210.359,224.941 210.000,224.600 210.000 C 224.270 210.000,224.001 210.225,224.002 210.500 M252.800 210.800 C 252.800 211.240,252.640 211.600,252.443 211.600 C 252.247 211.600,251.975 212.045,251.839 212.588 C 251.702 213.132,250.666 214.437,249.535 215.488 C 248.404 216.540,247.249 217.625,246.968 217.900 C 246.687 218.175,246.264 218.400,246.029 218.400 C 245.793 218.400,245.600 218.670,245.600 219.000 C 245.600 219.957,246.629 219.694,247.122 218.611 C 247.373 218.060,248.064 217.499,248.682 217.344 C 249.958 217.023,250.800 216.297,250.800 215.517 C 250.800 215.220,251.160 214.717,251.600 214.400 C 252.040 214.083,252.400 213.503,252.400 213.112 C 252.400 212.720,252.580 212.400,252.800 212.400 C 253.020 212.400,253.200 212.040,253.200 211.600 C 253.200 211.160,253.380 210.800,253.600 210.800 C 253.820 210.800,254.000 210.620,254.000 210.400 C 254.000 210.180,253.730 210.000,253.400 210.000 C 253.067 210.000,252.800 210.356,252.800 210.800 M268.000 210.339 C 268.000 211.912,271.789 216.000,273.248 216.000 C 273.636 216.000,274.064 216.180,274.200 216.400 C 274.336 216.620,274.932 216.779,275.524 216.754 C 276.201 216.724,276.340 216.639,275.900 216.524 C 275.515 216.424,275.200 216.175,275.200 215.971 C 275.200 215.767,274.675 215.600,274.033 215.600 C 273.392 215.600,272.807 215.465,272.733 215.300 C 272.660 215.135,272.060 214.698,271.400 214.329 C 270.642 213.905,270.153 213.278,270.073 212.629 C 270.004 212.063,269.779 211.600,269.573 211.600 C 269.368 211.600,269.200 211.240,269.200 210.800 C 269.200 210.356,268.933 210.000,268.600 210.000 C 268.270 210.000,268.000 210.152,268.000 210.339 M286.800 211.633 C 286.800 212.608,287.735 212.470,287.929 211.467 C 288.006 211.072,287.802 210.800,287.429 210.800 C 287.058 210.800,286.800 211.142,286.800 211.633 M134.800 211.524 C 134.800 211.739,135.056 212.013,135.369 212.133 C 135.717 212.266,135.854 212.671,135.722 213.176 C 135.596 213.657,135.699 214.000,135.969 214.000 C 136.521 214.000,140.400 217.865,140.400 218.416 C 140.400 218.627,140.760 218.800,141.200 218.800 C 141.640 218.800,142.000 218.980,142.000 219.200 C 142.000 219.420,142.360 219.600,142.800 219.600 C 143.240 219.600,143.600 219.780,143.600 220.000 C 143.600 220.220,144.050 220.400,144.600 220.400 C 145.150 220.400,145.600 220.580,145.600 220.800 C 145.600 221.020,145.885 221.200,146.233 221.200 C 147.288 221.200,146.616 220.209,145.469 220.073 C 144.881 220.004,144.400 219.779,144.400 219.573 C 144.400 219.368,144.113 219.200,143.762 219.200 C 143.411 219.200,142.625 218.845,142.017 218.412 C 141.408 217.978,140.795 217.738,140.655 217.878 C 140.515 218.019,140.400 217.943,140.400 217.711 C 140.400 217.479,139.635 216.496,138.700 215.527 C 137.765 214.557,136.699 213.237,136.332 212.593 C 135.654 211.405,134.800 210.809,134.800 211.524 M262.800 211.600 C 262.800 211.820,262.980 212.000,263.200 212.000 C 263.420 212.000,263.600 212.450,263.600 213.000 C 263.600 213.550,263.780 214.000,264.000 214.000 C 264.220 214.000,264.407 214.315,264.415 214.700 C 264.424 215.085,265.007 215.762,265.710 216.205 C 266.414 216.648,267.352 217.592,267.795 218.304 C 268.337 219.176,268.837 219.544,269.324 219.430 C 269.723 219.338,270.147 219.518,270.267 219.831 C 270.537 220.534,271.200 220.582,271.200 219.898 C 271.200 219.621,270.615 219.142,269.900 218.833 C 269.185 218.524,268.006 217.670,267.281 216.935 C 266.555 216.201,265.790 215.600,265.581 215.600 C 265.371 215.600,265.219 215.465,265.243 215.300 C 265.330 214.696,264.697 213.200,264.353 213.200 C 264.159 213.200,264.000 212.750,264.000 212.200 C 264.000 211.578,263.773 211.200,263.400 211.200 C 263.070 211.200,262.800 211.380,262.800 211.600 M292.267 212.267 C 292.120 212.413,292.000 212.771,292.000 213.062 C 292.000 214.824,286.036 220.000,284.005 220.000 C 283.556 220.000,283.200 220.265,283.200 220.600 C 283.200 220.930,283.380 221.200,283.600 221.200 C 283.820 221.200,284.000 221.020,284.000 220.800 C 284.000 220.580,284.450 220.400,285.000 220.400 C 285.550 220.400,286.000 220.220,286.000 220.000 C 286.000 219.780,286.270 219.600,286.600 219.600 C 286.930 219.600,287.200 219.420,287.200 219.200 C 287.200 218.980,287.566 218.800,288.013 218.800 C 289.067 218.800,291.600 216.267,291.600 215.213 C 291.600 214.766,291.780 214.400,292.000 214.400 C 292.220 214.400,292.400 214.130,292.400 213.800 C 292.400 213.470,292.580 213.200,292.800 213.200 C 293.020 213.200,293.200 212.930,293.200 212.600 C 293.200 211.975,292.727 211.806,292.267 212.267 M285.300 213.410 C 284.264 214.517,284.189 214.800,284.930 214.800 C 285.617 214.800,287.290 213.024,286.937 212.670 C 286.523 212.257,286.275 212.369,285.300 213.410 M162.000 213.800 C 162.000 214.219,162.422 214.400,163.400 214.400 C 164.170 214.400,164.800 214.580,164.800 214.800 C 164.800 215.020,165.070 215.200,165.400 215.200 C 165.730 215.200,166.000 214.930,166.000 214.600 C 166.000 214.267,165.644 214.000,165.200 214.000 C 164.760 214.000,164.400 213.820,164.400 213.600 C 164.400 213.380,163.860 213.200,163.200 213.200 C 162.400 213.200,162.000 213.400,162.000 213.800 M244.400 213.600 C 244.400 213.820,244.040 214.000,243.600 214.000 C 243.156 214.000,242.800 214.267,242.800 214.600 C 242.800 215.424,243.737 215.354,244.538 214.469 C 245.292 213.636,245.382 213.200,244.800 213.200 C 244.580 213.200,244.400 213.380,244.400 213.600 M160.492 214.475 C 160.739 215.217,161.600 215.340,161.600 214.633 C 161.600 214.285,161.315 214.000,160.967 214.000 C 160.618 214.000,160.405 214.214,160.492 214.475 M220.400 214.151 C 220.400 214.527,223.644 217.600,224.040 217.600 C 224.248 217.600,224.622 218.050,224.873 218.600 C 225.370 219.692,226.400 219.962,226.400 219.000 C 226.400 218.670,226.205 218.400,225.966 218.400 C 225.728 218.400,224.545 217.455,223.338 216.300 C 221.239 214.291,220.400 213.678,220.400 214.151 M158.452 215.449 C 157.975 215.989,158.022 216.051,158.821 215.934 C 159.325 215.860,159.811 215.575,159.902 215.300 C 160.133 214.599,159.112 214.704,158.452 215.449 M229.600 215.400 C 229.600 215.769,229.975 216.000,230.576 216.000 C 231.113 216.000,231.664 216.180,231.800 216.400 C 231.936 216.620,232.622 216.779,233.324 216.754 C 234.026 216.728,234.285 216.625,233.900 216.524 C 233.515 216.424,233.200 216.175,233.200 215.971 C 233.200 215.767,232.570 215.600,231.800 215.600 C 231.030 215.600,230.400 215.420,230.400 215.200 C 230.400 214.980,230.220 214.800,230.000 214.800 C 229.780 214.800,229.600 215.070,229.600 215.400 M241.455 215.400 C 241.315 215.765,241.455 216.000,241.813 216.000 C 242.136 216.000,242.400 215.730,242.400 215.400 C 242.400 215.070,242.239 214.800,242.043 214.800 C 241.846 214.800,241.582 215.070,241.455 215.400 M282.800 215.400 C 282.800 215.730,283.070 216.000,283.400 216.000 C 283.730 216.000,284.000 215.730,284.000 215.400 C 284.000 215.070,283.730 214.800,283.400 214.800 C 283.070 214.800,282.800 215.070,282.800 215.400 M148.500 216.100 C 148.619 216.457,149.849 216.600,152.800 216.600 C 155.751 216.600,156.981 216.457,157.100 216.100 C 157.205 215.786,156.882 215.600,156.233 215.600 C 155.665 215.600,155.200 215.780,155.200 216.000 C 155.200 216.222,154.133 216.400,152.800 216.400 C 151.467 216.400,150.400 216.222,150.400 216.000 C 150.400 215.780,149.935 215.600,149.367 215.600 C 148.718 215.600,148.395 215.786,148.500 216.100 M196.400 215.951 C 196.400 216.144,196.670 216.526,197.000 216.800 C 197.330 217.074,197.600 217.822,197.600 218.462 C 197.600 219.127,197.343 219.724,197.000 219.855 C 196.670 219.982,196.400 220.336,196.400 220.643 C 196.400 221.038,196.632 220.968,197.200 220.400 C 197.640 219.960,198.180 219.600,198.400 219.600 C 199.181 219.600,198.785 217.549,197.818 216.582 C 196.781 215.544,196.400 215.375,196.400 215.951 M238.484 216.215 C 238.052 216.705,238.096 216.800,238.752 216.800 C 239.811 216.800,240.800 216.393,240.800 215.957 C 240.800 215.382,239.047 215.577,238.484 216.215 M281.200 215.972 C 281.200 216.177,280.795 216.430,280.300 216.534 C 279.802 216.639,280.012 216.696,280.769 216.662 C 282.099 216.602,283.103 215.600,281.833 215.600 C 281.485 215.600,281.200 215.767,281.200 215.972 M309.200 215.969 C 309.200 216.180,313.388 216.394,319.015 216.469 C 327.205 216.578,328.893 216.699,329.209 217.200 C 329.777 218.099,329.677 219.438,329.000 220.000 C 328.166 220.692,328.251 221.200,329.200 221.200 C 329.787 221.200,330.000 220.933,330.000 220.200 C 330.000 219.650,330.180 219.200,330.400 219.200 C 331.186 219.200,330.780 218.041,329.569 216.831 L 328.338 215.600 318.769 215.600 C 313.197 215.600,309.200 215.754,309.200 215.969 M164.700 217.357 C 163.923 217.946,163.763 218.800,164.429 218.800 C 164.982 218.800,166.000 217.782,166.000 217.229 C 166.000 216.662,165.558 216.706,164.700 217.357 M162.400 218.967 C 162.400 219.315,162.685 219.600,163.033 219.600 C 163.382 219.600,163.595 219.386,163.508 219.125 C 163.261 218.383,162.400 218.260,162.400 218.967 M303.808 219.290 C 303.513 220.001,304.369 221.200,305.171 221.200 C 305.777 221.200,305.704 220.501,305.059 220.120 C 304.761 219.944,304.422 219.530,304.305 219.200 C 304.127 218.696,304.048 218.710,303.808 219.290 M160.580 219.566 C 160.371 219.768,159.764 219.993,159.231 220.066 C 158.150 220.216,157.573 221.200,158.567 221.200 C 158.915 221.200,159.200 221.020,159.200 220.800 C 159.200 220.580,159.830 220.400,160.600 220.400 C 161.578 220.400,162.000 220.219,162.000 219.800 C 162.000 219.134,161.170 218.998,160.580 219.566 M203.600 219.400 C 203.600 220.056,205.380 221.200,206.400 221.200 C 207.067 221.200,207.956 220.844,208.400 220.400 C 209.037 219.763,209.075 219.600,208.587 219.600 C 208.251 219.600,207.871 219.870,207.745 220.200 C 207.406 221.081,205.484 220.947,204.893 220.000 C 204.445 219.282,203.600 218.890,203.600 219.400 M226.800 219.800 C 226.800 220.130,227.070 220.400,227.400 220.400 C 227.730 220.400,228.000 220.130,228.000 219.800 C 228.000 219.470,227.730 219.200,227.400 219.200 C 227.070 219.200,226.800 219.470,226.800 219.800 M244.000 219.827 C 244.000 220.604,246.428 223.583,247.069 223.593 C 247.327 223.597,247.057 223.080,246.469 222.445 C 244.718 220.552,244.337 220.000,244.784 220.000 C 245.013 220.000,245.200 219.820,245.200 219.600 C 245.200 219.380,244.930 219.200,244.600 219.200 C 244.270 219.200,244.000 219.482,244.000 219.827 M228.900 220.276 C 229.285 220.376,229.600 220.625,229.600 220.829 C 229.600 221.033,229.780 221.200,230.000 221.200 C 230.220 221.200,230.400 220.930,230.400 220.600 C 230.400 220.201,230.032 220.016,229.300 220.046 C 228.623 220.075,228.469 220.163,228.900 220.276 M271.600 220.600 C 271.600 220.933,271.956 221.200,272.400 221.200 C 272.844 221.200,273.200 220.933,273.200 220.600 C 273.200 220.267,272.844 220.000,272.400 220.000 C 271.956 220.000,271.600 220.267,271.600 220.600 M148.300 221.082 C 148.795 221.178,149.200 221.423,149.200 221.628 C 149.200 221.833,150.640 222.000,152.400 222.000 C 154.160 222.000,155.600 221.833,155.600 221.628 C 155.600 221.423,156.005 221.178,156.500 221.082 C 156.995 220.987,155.150 220.909,152.400 220.909 C 149.650 220.909,147.805 220.987,148.300 221.082 M232.100 221.076 C 232.485 221.176,232.800 221.425,232.800 221.629 C 232.800 221.833,234.330 222.000,236.200 222.000 C 239.763 222.000,241.200 222.644,241.200 224.240 C 241.200 224.905,243.410 227.200,244.051 227.200 C 244.252 227.200,244.622 227.650,244.873 228.200 C 245.226 228.976,245.606 229.188,246.564 229.146 C 247.493 229.105,247.578 229.048,246.908 228.919 C 246.417 228.824,245.671 228.308,245.250 227.773 C 244.829 227.238,244.305 226.800,244.085 226.800 C 243.865 226.800,243.567 226.490,243.421 226.111 C 242.962 224.914,240.621 222.025,240.100 222.012 C 239.825 222.006,239.600 221.730,239.600 221.400 C 239.600 220.903,238.898 220.808,235.500 220.846 C 233.245 220.872,231.715 220.975,232.100 221.076 M274.700 221.082 C 275.195 221.178,275.600 221.423,275.600 221.628 C 275.600 221.833,276.770 222.000,278.200 222.000 C 279.630 222.000,280.800 221.832,280.800 221.627 C 280.800 221.421,281.295 221.178,281.900 221.087 C 282.505 220.995,280.930 220.917,278.400 220.914 C 275.870 220.911,274.205 220.987,274.700 221.082 M248.638 225.950 C 248.792 226.910,248.718 227.604,248.443 227.773 C 247.791 228.176,247.904 229.200,248.600 229.200 C 248.968 229.200,249.200 228.826,249.200 228.233 C 249.200 227.702,249.425 227.162,249.700 227.033 C 250.100 226.847,250.100 226.753,249.700 226.567 C 249.425 226.438,249.200 225.898,249.200 225.367 C 249.200 224.835,249.018 224.400,248.795 224.400 C 248.549 224.400,248.488 225.008,248.638 225.950 " stroke="none" fill="#6c6c6c" fill-rule="evenodd"></path></g></svg>